<?xml version="1.0" encoding="UTF-8"?><svg xmlns="http://www.w3.org/2000/svg" viewBox="0 0 1309.3566 1811.4253"><defs><style>.d{fill:#fff;}</style></defs><g id="a"/><g id="b"><g id="c"><rect width="1309.3566" height="1811.4253"/><path class="d" d="M425.681,272.3025c7.2676,0,16.2549,36.1665,44.8984,41.6929,4.9375,.9526,14.0957,1.3135,25.1436,1.3135,10.6431,0,23.0391-.335,35.1045-.7991,2.187-.084,4.3672-.126,6.5332-.126,35.9116,0,68.75,11.519,93.1812,33.3228,4.2407,3.7847,7.4385,7.0603,8.7476,9.2935,26.335,44.9331,17.0752,60.9851,.4219,113.667-11.9438,37.7847-30.9038,75.1404-45.6846,118.593-.2856,1.468-1.8604,5.2363,1.6255,5.2363,.8115,0,1.8979-.2043,3.3389-.6897,7.7686-2.7163,15.6797-3.6404,28.353-3.6404,41.6401,0,100.9038,11.7646,113.9634,14.4824l.0088,.001,.04-.0002c4.3286-.0168,8.7207-2.8147,10.7998-6.948,18.8408-37.4565,81.1313-121.5864,93.9805-187.689,5.3354-27.4487-1.2319-32.4775-17.2261-32.478-9.2456-.0005-21.644,1.6797-36.7144,1.6797-7.0088,0-14.5913-.363-22.7095-1.4272-75.3247-9.876-42.0874-50.6118-17.0869-75.9888,.3345-.3394,12.3276-15.8357,20.6831-15.8357,2.3853,0,4.4727,1.2615,5.9092,4.4983,8.9097,20.0723,24.9414,26.6926,44.9795,26.6926,38.8076,0,92.6606-24.8196,139.002-24.821,7.811,0,15.4048,.7048,22.6807,2.3525l13.5708,3.0735c64.5249,18.2036,65.5874,72.4219,51.5093,144.8457-17.5967,90.5278-97.0034,200.9739-106.2065,238.9961l-1.4077,7.2407c-12.8457,66.0874-7.2656,118.8281-11.2524,165.625-2.9365,34.4624-16.8516,105.6577-37.6328,130.2759-.6362,.7534-1.7192,1.9238-3.0356,3.3047-10.3486,10.855-20.2715,22.0796-29.6523,33.6982l-1.6519,2.0459c-24.1045,26.5073-27.6685,82.7988-25.2856,114.2568,.9155,12.0845,2.2007,27.3027,12.8022,70.603,20.6665,84.4058-57.6919,116.8403-67.7217,168.4399-9.0288,46.4487-2.3105,88.7705,27.2383,114.5283,3.4785,3.0322,7.7598,4.3979,12.2061,4.3979,11.6167,0,24.3667-9.3184,26.9248-22.5752l.0752-.3887c3.167-16.2935,9.2251-33.4976,17.271-51.6035,23.9619-53.4121,90.7207-126.7378,156.7573-135.7905,4.7026-.9062,9.2295-.9062,12.8496-.9062,43.4526,0,49.2676,35.3057,42.7563,68.8037-2.6396,13.5791-7.9976,27.1587-12.647,37.1138-11.644,22.6323-21.8242,47.0771-26.3994,70.6157-3.1675,16.2939-6.4575,20.8398-5.0991,37.1382,.4048,7.2407,8.729,17.395,5.1289,32.5674-10.9448,46.1289-63.4194,56.126-105.0601,56.126h-145.7539c-27.0947-4.3662-29.9048-30.8862-48.0835-30.8882-.666,0-1.3506,.0352-2.0596,.1089-23.0117,2.3853-25.2158,31.0415-60.5747,31.0415-1.9204,0-3.936-.0845-6.0605-.2622h-112.2563c-65.1836,0-83.7202-44.3589-82.1885-94.1504,.3032-10.8608,1.5093-21.7261,3.6201-32.5874,13.9019-71.5176,64.5439-145.7539,114.9038-237.1855l33.6963-61.5586c17.9263-31.6855,48.5117-114.5215,44.3232-153.5229-1.5781-14.6929-3.792-24.5688-6.2988-31.2749-6.6582-17.8062-10.3491-36.3145-11.5444-54.666-.4331-5.165-1.1416-13.6084-1.5747-18.7734-8.6328-80.2539-2.5918-126.2251,40.2461-208.6816,4.4443-9.3501-.0107-15.5381-6.0767-21.9072-4.2158-4.4263-11.6406-5.4058-19.9595-5.4058-6.603,0-13.7695,.6172-20.3418,.6172-12.2476,0-33.9873,2.457-47.0522,3.8398-13.1216,1.3882-26.3809,5.2578-38.7993,11.8042-13.8667,7.3096-27.877,17.3926-37.875,29.0044-50.2139,58.3169-70.1631,101.4941-18.4062,214.5083,8.4209,18.3877,10.6797,39.8594,6.4126,61.8135l-.0791,.4072c-8.8721,45.6436-30.9507,70.7935-71.707,86.1831-10.8428,4.0942-21.9375,6.7993-32.9724,8.2778-2.4543,.3286-4.5354,.5952-5.2295,.5952h-118.5952c-81.4771,0-94.6816-62.4648-81.1318-132.1724,14.9573-76.9482,98.7642-242.6187,141.1047-311.4202,36.2349-60.6545,84.8135-147.562,97.6592-213.6472,9.4458-48.595-6.7661-63.3047-34.2495-73.321-10.0454-3.6611-21.6633-4.0215-30.7153-9.2783-29.5063-17.136,25.3359-61.3425,50.7329-72.1299,.2896-.123,.582-.1826,.876-.1826m0-27.6238c-4.0273,0-7.9556,.801-11.6748,2.3806-13.4358,5.7068-30.3694,16.9243-44.1931,29.2749-20.0361,17.9014-30.7261,35.491-31.7725,52.2805-1.0327,16.5713,7.0437,31.1101,22.1584,39.8882,9.1655,5.3225,18.5649,7.3826,26.1179,9.0376,3.4597,.7583,6.7278,1.4746,9.0117,2.3069,12.041,4.3882,15.1248,7.637,16.4663,9.9773,1.7761,3.0986,4.1545,11.3916,.1255,32.1189-5.2395,26.9551-17.9512,61.2881-37.782,102.0449-19.1672,39.3931-41.3398,77.3667-56.384,102.5532-23.4756,38.1707-55.7214,99.0608-82.1846,155.1956-23.5112,49.873-53.4246,119.0308-62.4131,165.2739-4.8633,25.0181-6.271,47.7832-4.1843,67.6621,2.5901,24.6724,10.564,45.2627,23.7002,61.1982,9.8679,11.9707,22.4995,21.1274,37.5442,27.2163,14.7393,5.9653,31.9612,8.9902,51.188,8.9902h118.5952c2.3662,0,4.6333-.269,8.8955-.8398,13.4456-1.8013,26.5881-5.103,39.0647-9.8145,25.3188-9.5601,44.6763-22.5762,59.1787-39.792,14.7573-17.5181,24.5332-39.4219,29.8867-66.9629l.0811-.4199c5.373-27.6431,2.4639-54.8174-8.416-78.5737-22.4121-48.9395-30.937-84.5908-26.8281-112.1968,3.7627-25.2773,18.4971-46.5903,41.0522-72.7847,6.8853-7.9966,17.7554-16.2314,29.8232-22.5923,9.0093-4.7495,18.707-7.7002,28.8242-8.7705l3.8682-.4121c12.1997-1.3037,30.6362-3.2744,40.2778-3.2744,3.9019,0,7.7061-.1709,11.3853-.3359,1.2998-.0581,2.5698-.1152,3.7993-.1626-18.8184,38.042-29.8604,69.2642-35.4102,99.7969-5.8281,32.0664-6.1616,64.27-1.1431,111.084l.7603,9.0674,.7671,9.1416c1.4395,21.7188,5.8862,42.6689,13.2183,62.2764,1.3242,3.5444,3.2173,10.6826,4.707,24.5498,1.4072,13.1069-3.3535,38.606-12.7358,68.2095-9.4478,29.8096-20.9531,56.0146-28.1646,68.7612l-.0952,.1689-.0933,.1699-33.6963,61.5586c-11.168,20.2744-22.3936,39.7695-33.2495,58.6235-39.106,67.9165-72.8794,126.5718-84.5396,186.5547-2.3823,12.2598-3.7666,24.7109-4.1143,37.0088h0c-.5493,17.8452,1.1978,34.1953,5.1924,48.5967,4.874,17.5728,13.1084,32.4258,24.4741,44.147,19.2266,19.8271,46.187,29.8804,80.1328,29.8804h111.1895c2.4209,.1743,4.8125,.2622,7.1274,.2622,31.3521,0,47.6392-15.9941,57.3706-25.5503,1.0376-1.019,2.2544-2.2139,3.3784-3.2588,.2402,.272,.4741,.5371,.6958,.7891,7.7485,8.7939,20.7168,23.5122,44.8779,27.4062l2.1836,.3516h147.9653c29.168,0,54.311-4.3462,74.7319-12.9175,30.4526-12.7817,50.2339-35.0703,57.2061-64.4551,4.3325-18.2593-.9585-32.5786-3.8013-40.272-.2446-.6616-.5498-1.4888-.7646-2.103-.4409-6.228,.1367-8.5596,1.8335-15.4097,.8467-3.4189,1.9004-7.6733,2.9414-13.0269,3.5024-18.0225,11.5259-39.3022,23.8462-63.2495l.2417-.4697,.2236-.4785c4.9014-10.4946,11.4365-26.5659,14.7344-43.5317,6.3281-32.5537,1.6763-59.4609-13.4517-77.8125-8.9829-10.897-26.063-23.8867-56.4209-23.8867-4.1396,0-10.3193,0-17.2915,1.2588-25.042,3.5713-63.9976,16.6431-108.5874,58.3599-29.1704,27.2915-54.9395,62.2056-68.9316,93.395l-.0205,.0449-.0195,.0444c-9.0474,20.3599-15.1528,38.3774-18.624,54.9741-6.6045-7.7056-11.2002-17.4048-13.6963-28.937-3.3267-15.3638-3.0015-33.5005,.9648-53.9072,2.4458-12.5825,13.1436-25.9688,25.5303-41.4688,12.4648-15.5981,26.5928-33.2769,35.9014-55.2012,11.2998-26.6147,13.2642-53.9639,6.0054-83.6104-10.2515-41.8716-11.3135-55.8867-12.0889-66.1201-1.2476-16.4741-.3496-36.0225,2.4023-52.291,3.209-18.9707,8.8115-33.6357,15.7759-41.2944l.5464-.6006,.5098-.6318,1.6519-2.0459c8.6055-10.6587,18.0776-21.4214,28.1528-31.9897,1.8794-1.9712,3.1587-3.3726,4.147-4.5435,12.0312-14.2524,22.5156-38.6172,31.1646-72.4214,7.3384-28.6816,11.4688-56.6865,12.8872-73.3315,1.4624-17.1704,1.7036-34.562,1.959-52.9751,.4692-33.8843,.9546-68.9229,8.8857-109.7241l1.2651-6.5093c2.9067-11.0464,16.8857-36.6711,30.4111-61.4639,28.5762-52.3809,64.1401-117.5706,75.938-178.2637,6.5127-33.5044,11.999-72.1897,3.313-105.0801-9.585-36.2947-34.6299-60.3923-74.4385-71.6228l-.6948-.196-.7041-.1597-13.5708-3.0735c-8.8916-2.0134-18.5742-3.0344-28.7788-3.0344-27.7051,.0007-55.5225,7.1733-82.4243,14.1096-21.3628,5.5083-41.5405,10.7112-56.5811,10.7112-14.0815,0-17.0601-4.259-19.731-10.2761-5.7256-12.9001-17.6646-20.9148-31.1572-20.9148-13.8145,0-27.3042,8.1621-41.2207,24.947-7.3398,7.4941-17.5312,18.4907-24.9424,30.377-11.271,18.0769-14.2695,35.1401-8.9126,50.7158,2.9048,8.4458,9.8428,20.3459,26.4004,29.0767,10.6704,5.6262,24.2407,9.4604,41.4873,11.7217,8.5283,1.1182,17.1313,1.6616,26.3008,1.6616,9.4077,0,17.8633-.5869,24.6577-1.0586,.6758-.0469,1.3389-.0928,1.9878-.1372-8.6084,42.6438-41.9702,97.0437-66.3755,136.8386-7.4014,12.0679-14.0786,22.9556-19.3921,32.3826-22.6138-4.2756-65.1084-11.4426-99.5654-12.2473,3.0161-7.4951,6.0742-14.8704,9.0913-22.147,8.6948-20.97,16.9077-40.7771,23.4507-61.4763,1.4761-4.6702,2.8892-9.0334,4.2554-13.2532,7.2524-22.3999,12.9805-40.0928,13.1035-59.0122,.1309-20.1602-5.9365-39.2092-20.2876-63.6956-2.8218-4.8132-7.064-9.5786-14.1865-15.9351-14.7856-13.1956-32.085-23.374-51.418-30.2534-18.8037-6.6912-39.0435-10.084-60.1567-10.084-2.5122,0-5.0684,.0496-7.5957,.1467-13.4336,.5166-24.8872,.7786-34.042,.7786-15.2422,0-19.4785-.7302-19.9116-.8135-6.7935-1.3108-12.8237-10.9946-17.6689-18.7756-2.2192-3.5637-4.3149-6.9294-6.7671-10.0176-8.7954-11.0747-18.8271-13.3994-25.6943-13.3994h0Z"/></g></g></svg>