<?xml version="1.0" encoding="UTF-8"?><svg xmlns="http://www.w3.org/2000/svg" viewBox="0 0 1889.7215 2379.2145"><defs><style>.d{fill:#fff;}.e{fill:#1d1d1b;}</style></defs><g id="a"/><g id="b"><g id="c"><rect x="-244.7465" y="244.7465" width="2379.2145" height="1889.7215" transform="translate(2134.468 244.7465) rotate(90)"/><g><g><g><path class="d" d="M1221.3857,978.6236c19.7784,0,19.8112-30.7379,0-30.7379-19.7784,0-19.8112,30.7379,0,30.7379h0Z"/><g><path class="d" d="M1327.2446,1648.3113c12.2952,12.2952,39.0431,116.6063,33.4782,122.1233-2.3843-.2766-4.7264-.8623-6.9659-1.7199-6.9763-2.6717-47.2947-5.2925-73.4211,6.3063-30.3045,13.4537-40.4811,57.8802-73.0376,57.7339-35.2169-.1582-67.6752-36.652-100.4501-23.7652-25.5066,10.0289-32.83,44.268-56.26,58.4877-25.5054,15.4793-58.5663,1.374-82.7368-16.1166s-48.5153-39.4076-78.3457-39.9386c-44.4746-.7918-80.3651,46.7865-124.5675,41.8101-29.3018-3.2988-50.6217-28.7101-67.004-53.2274-16.3823-24.5173-32.9918-51.7293-60.399-62.607-24.8855-9.8769-59.8941,4.5296-63.2893,29.1551-.6518,4.7271-4.5978,8.3154-9.3381,8.8633h0c-3.0436,.3517-6.1489-.5506-8.4171-2.6103-6.7743-6.1515-32.7397-89.2367-35.5423-98.1858-52.9307-169.0132,92.187-276.9401,104.6307-453.6101,9.1875-130.4396-76.8926-269.0465-12.3347-382.7619l607.2158,125.3653c69.5331,110.8904-24.6571,231.8892-33.4734,362.4795-8.8163,130.5903,73.8349,291.8152,163.4983,387.1672l-23.2404-64.949Z"/><path class="d" d="M1316.3771,1659.1788c1.9511,2.0603-.8927-2.2184-.8389-1.169,.0274,.5343,1.0437,1.5833,1.3019,2.0794,.8036,1.5441,1.6391,3.0628,2.382,4.6398,.3683,.7819,2.2103,5.107,.5521,1.1128,.4443,1.0702,.8763,2.1455,1.3002,3.224,.9289,2.3636,1.8089,4.7465,2.663,7.1381,4.4858,12.5619,8.2559,25.3871,11.7143,38.2657,3.2915,12.2571,6.313,24.6111,8.6885,37.0813,.4727,2.4814,.9204,4.9683,1.3132,7.4637,.1603,1.0182,.3049,2.0384,.4549,3.0581-.6949-4.7256-.1357-1.0999-.0627-.025,.1034,1.5222,.0902,3.1169,.2597,4.6298,.0065,.0576-.0838,1.5799-.0724,1.5825-2.2036-.4893,5.3634-10.563,3.8225-8.6929l14.9532-3.9525c-6.1799-.9871-11.8059-2.94-18.1015-3.6636-6.484-.7452-13.0165-.9782-19.5406-.8746-17.1853,.273-34.9548,2.483-50.9067,9.1129-14.0304,5.8313-24.7207,16.0612-34.2154,27.6684-7.9239,9.6869-16.7764,22.2235-25.8495,27.2742-.8703,.4845-1.8093,1.0019-2.7386,1.3853,2.6855-1.1079-2.109,.4641-2.1641,.4783-4.4244,1.1377,2.4454,.1288-2.3008,.3574-1.8998,.0915-3.8523,.0507-5.7445-.1416-7.1819-.73-14.9047-3.5474-21.7243-6.4263-15.1256-6.3854-29.7332-15.1892-46.0189-18.3608-17.6793-3.443-34.7898-.217-49.0301,11.0392-12.4451,9.8371-20.2283,23.8635-29.4507,36.4866-7.7506,10.6086-17.3232,18.9141-31.6451,18.8075-17.3887-.1294-34.0533-9.6269-47.893-19.329-31.2135-21.8818-60.8783-48.3686-101.8856-42.2373-31.9876,4.7827-56.181,28.0438-86.119,37.7935-13.4268,4.3727-27.0268,4.5979-40.1478-2.812-14.2237-8.0326-25.1104-21.1844-34.3572-34.403-20.4511-29.2355-39.2207-63.4773-75.0665-75.8277-29.5314-10.1748-71.4371,5.0629-79.828,37.232-1.7816,6.8303,1.8496-.5476,6.0108,1.6876,1.995,1.0716,3.5257,5.2188,1.916,1.7015-.5755-1.2575-1.2894-2.4645-1.8792-3.7197-.4012-.8539-.7709-1.7214-1.1575-2.5819-.9755-2.1713,1.0586,2.7552-.5549-1.3819-4.0206-10.3094-7.7587-20.7148-11.3384-31.1856-6.0273-17.6305-11.8028-35.3589-17.3094-53.1594-9.3689-30.2857-12.9117-61.3368-9.9155-92.9406,2.6477-27.9282,11.3433-57.2513,21.6526-84.2875,22.5201-59.0594,54.4561-114.7947,74.1215-175.3522,10.6702-32.8577,17.7669-67.0605,19.6092-101.606,2.0106-37.7027-3.5353-75.5115-10.5575-112.4582-6.9833-36.7422-15.9152-73.1226-21.6186-110.1042-5.1297-33.2618-7.4737-68.1763-.1575-101.2891,3.6181-16.3754,9.4283-31.8538,17.6125-46.4914l-17.3563,7.063,60.2453,12.4382,145.4157,30.0224,175.2326,36.1784,151.4974,31.2781,49.9721,10.3172c7.7723,1.6047,15.8773,4.1235,23.7871,4.9111,.3541,.0353,.7156,.1478,1.0655,.22l-9.185-7.063c12.8457,20.7933,20.9468,43.9121,22.789,68.3611,1.8204,24.1595-1.2094,48.2047-6.3797,71.7812-11.6056,52.9214-31.9453,103.4827-43.4432,156.4446-11.4473,52.7288-11.3226,105.0072-.2146,157.7798,11.2582,53.4866,31.8913,105.0673,57.338,153.3191,27.617,52.367,61.8359,101.8247,102.3386,145.0715,10.1513,10.839,30.915-.3441,25.6875-14.9532l-23.2404-64.949c-2.7952-7.8115-10.4729-13.0517-18.9057-10.7343-7.5541,2.076-13.5441,11.0533-10.7343,18.9057l23.2404,64.949,25.6875-14.9532c-50.0139-53.4024-89.9706-116.7791-119.1536-183.7657-28.3914-65.1695-46.9082-137.7147-38.2792-209.1028,8.9903-74.3767,43.6991-142.8336,54.2442-216.8686,5.1063-35.8504,4.23-72.7054-9.3759-106.7294-3.296-8.2423-7.0156-16.3027-11.4255-24.0112-3.2443-5.6712-6.3009-11.2065-13.0359-13.1668-1.2834-.3736-2.6607-.5493-3.9682-.8193l-170.0313-35.1045-268.5245-55.4394c-53.9718-11.143-107.864-22.8258-161.944-33.4348-.8445-.1657-1.6859-.3481-2.5288-.5221-6.6189-1.3665-13.8956,.8734-17.3563,7.063-42.7445,76.4485-23.324,164.1349-6.3494,244.9802,8.6135,41.0235,17.1821,82.4082,17.2799,124.51,.0901,38.8264-7.9568,77.0559-20.2226,113.7616-22.544,67.4633-60.1972,128.8174-81.6713,196.6643-10.608,33.5158-16.6642,68.9688-14.6,104.189,1.694,28.9038,9.098,56.2215,17.8983,83.5972,8.0385,25.0061,15.7996,50.4622,26.5164,74.4827,1.677,3.7589,3.5263,7.6301,6.442,10.6195,7.9611,8.1622,21.3426,9.7076,31.2081,4.2215,5.2138-2.8994,9.1559-7.6029,11.3424-13.0921,.8411-2.1116,1.1742-4.086,1.7159-6.2645,.2679-1.0774,.527-2.1559,.9328-3.1929,.9501-2.4281-.7858,1.4227,.5001-.852,3.0341-5.3672,7.494-9.0017,14.6224-11.8079,13.4592-5.2984,27.3339-2.4617,40.2962,7.3314,15.0226,11.3496,25.4357,28.0466,35.7012,43.4982,22.0298,33.1591,52.4891,70.2151,96.9536,65.4179,19.3924-2.0922,36.7694-10.5631,53.6429-19.8914,15.2017-8.404,30.3997-17.9771,47.7308-21.2009,18.1521-3.3766,36.0023,5.7651,51.1499,15.9746,17.443,11.7566,33.1482,26.0624,52.3122,35.1062,19.6327,9.265,43.1279,15.2714,64.258,7.2119,19.185-7.3176,30.7376-22.5616,41.9533-38.96,7.9962-11.6911,16.7558-24.5914,30.4879-25.1658,15.8935-.6648,32.7127,10.0138,47.6528,16.4265,17.2496,7.4041,37.6397,14.2045,56.1597,7.155,15.502-5.9007,25.9413-18.2129,36.0203-30.8074,9.8363-12.2913,18.2497-23.1679,33.1323-27.7483,16.0958-4.9537,33.6151-5.8069,50.3259-4.3123,.632,.0565,4.6027,.5598,2.4544,.2301-2.2087-.339,1.444,.277,1.9205,.4077,4.2481,1.1644,8.4939,2.8226,12.9825,2.8226,9.9752,0,15.5005-8.6315,16.048-17.5436,.5681-9.2483-1.795-18.9922-3.6039-28.0137-5.1814-25.841-12.0625-51.7976-21.3513-76.4796-3.4127-9.0682-6.8976-19.1363-13.7036-26.3229-13.6301-14.3924-35.3394,7.3697-21.735,21.735Z"/></g><g><path class="d" d="M625.579,1674.6202c-36.3426-54.5354-36.1712-124.7126-34.7193-190.2319"/><path class="d" d="M638.8497,1666.8632c-35.2335-53.721-33.9722-120.6946-32.6209-182.4749,.4328-19.7876-30.3052-19.783-30.7379,0-1.4687,67.1469-1.4075,139.7066,36.8176,197.9889,10.8052,16.4748,37.4324,1.0918,26.5413-15.514h0Z"/></g><path class="d" d="M590.4034,1432.4879c19.7784,0,19.8112-30.7379,0-30.7379-19.7784,0-19.8112,30.7379,0,30.7379h0Z"/><g><path class="d" d="M669.2937,887.8339c13.4885-52.8466,68.1726-91.8802,122.5344-87.4652"/><path class="d" d="M684.1137,891.9195c12.3983-46.9203,59.5547-79.6846,107.7144-76.1819,8.2884,.6028,15.369-7.4952,15.369-15.369,0-8.8189-7.0566-14.7644-15.369-15.369-61.4633-4.4702-121.6756,39.4132-137.3544,98.7485-5.0584,19.143,24.5828,27.3096,29.6399,8.1714h0Z"/></g><path class="d" d="M864.2287,815.3972c19.7784,0,19.8112-30.7379,0-30.7379-19.7784,0-19.8112,30.7379,0,30.7379h0Z"/><g><path class="d" d="M1231.9391,1663.4111c1.4007,6.8214,7.2985,21.2497,7.2985,21.2497l4.5875,8.6838c5.2174,9.8764,11.0711,19.4157,17.7414,28.3751,1.8896,2.5381,3.5942,4.9893,4.4564,6.632"/><path class="d" d="M1217.1191,1667.4967c2.1161,9.7773,6.171,19.8541,10.8437,28.6992,3.0073,5.6927,6.0261,11.3726,9.3554,16.887,2.4729,4.096,5.0766,8.1129,7.8249,12.0297,2.5539,3.6398,5.449,7.0973,7.6092,10.9962,3.8998,7.0387,14.1619,9.9401,21.0277,5.5136,7.1282-4.5956,9.6855-13.4979,5.5136-21.0277-2.0647-3.7265-4.8143-7.0357-7.2657-10.5066-2.7601-3.9081-5.3755-7.9181-7.8593-12.0072-3.3373-5.4943-6.3654-11.1541-9.3666-16.8353l-1.52-2.8774c-.1845-.3493-.3497-.7244-.5599-1.0599-1.0271-1.6392,1.4625,3.6683,1.3228,3.2355-.4762-1.4752-1.1628-2.91-1.7206-4.3565-2.1194-5.4953-4.3163-11.0919-5.5651-16.8621-1.7029-7.8681-11.3122-13.1916-18.9057-10.7343-8.2857,2.6814-12.5588,10.4758-10.7343,18.9057h0Z"/></g></g><g><path class="d" d="M1196.7953,898.583c19.7784,0,19.8112-30.7379,0-30.7379-19.7784,0-19.8112,30.7379,0,30.7379h0Z"/><g><path class="d" d="M1325.8947,1633.2197c12.2952,12.2952,16.4204,41.2739,10.8555,46.791-2.1071,4.2142-5.3441,9.5211-7.5836,8.6634-6.9763-2.6717-15.0812-1.8747-21.9919-.1326-.7654,.1929-1.5949,.3685-2.479,.5279-29.036,5.236-55.0878,20.8406-75.9172,41.7365-12.8744,12.9155-28.0206,21.9897-46.0705,21.9086-35.2169-.1582-67.6752-36.652-100.4501-23.7652-25.5066,10.0289-32.83,44.268-56.26,58.4877-25.5054,15.4793-58.5663,1.374-82.7368-16.1166-24.1706-17.4906-48.5153-39.4076-78.3457-39.9386-44.4746-.7918-80.3651,46.7865-124.5675,41.8101-29.3018-3.2988-50.6217-28.7101-67.004-53.2274-16.3823-24.5173-32.9918-51.7293-60.399-62.607-24.8855-9.8769-59.8941,4.5296-63.2893,29.1551-.6518,4.7271-4.5978,8.3154-9.3381,8.8633h0c-3.0436,.3517-6.1489-.5506-8.4171-2.6103-6.7743-6.1515-10.3186-15.6332-13.1212-24.5822-52.9307-169.0132-10.7099-350.8095,1.7338-527.4795,9.1875-130.4396,3.5832-268.7807,68.1411-382.4961l607.2158,125.3653c69.5331,110.8904,56.7942,252.1086,47.9779,382.6989-8.8163,130.5903-7.6164,271.5958,82.047,366.9478h0Z"/><path class="d" d="M1315.0272,1644.0872c4.2643,4.5267,7.4857,13.3782,8.628,21.7138-.289-2.109,.1299,3.2832,.1579,3.848,.0114,.9292-.0124,1.8574-.0714,2.7847,.3481-1.9731,.3667-2.1373,.056-.4927-.5008,1.6851-.3051,1.3718,.5873-.9401,2.3072-2.888,2.0054-2.4705-.9053,1.2527-.4979,.7578-3.7559,4.6754-1.0553,3.1611l7.757-2.0983c4.0281,.0449-8.9886-1.6697-5.8072-1.3063-1.6807-.192-3.2654-.4061-4.974-.4333-4.6689-.0743-9.4006,.7264-13.9664,1.6024-7.8341,1.5032-15.6652,3.272-23.2166,5.8693-15.1,5.1936-29.4142,12.5927-42.2493,22.095-12.2272,9.0522-22.2377,21.5264-35.1411,29.4704-11.1064,6.8377-22.8099,8.1296-35.0945,4.6584-26.1333-7.3842-49.5138-27.1506-78.026-24.1161-14.1812,1.5093-26.7023,8.0284-36.5721,18.2954-9.275,9.6481-15.7627,21.4219-23.8291,31.9993-6.4398,8.4444-14.3837,15.879-25.9002,17.1833-13.3148,1.508-27.1284-4.1612-38.5322-10.4746-27.4187-15.1796-48.9727-39.3886-79.7111-48.6598-29.2884-8.8338-56.8715,1.6062-82.4979,15.5956-20.1599,11.0052-43.1456,27.3735-66.6895,22.1707-26.8587-5.9353-43.3806-33.1469-57.5342-54.3419-16.6932-24.9981-36.0438-51.6711-65.9914-61.3037-25.9087-8.3335-58.2384,1.908-73.3272,24.8008-1.1959,1.8145-8.2327,14.0266-6.2856,16.0055,.4214,.4283,2.9611-2.1975,3.3718-2.2864,1.9334-.4185,3.005,.842,2.9327,.1526-.1905-1.8183-3.5213-5.2964-4.399-7.2118-7.187-15.6845-10.6338-34.2931-14.3667-51.052-31.0538-139.4149-5.1469-283.9052,8.5782-423.7956,6.6092-67.3631,8.2566-134.9602,13.2455-202.4286,4.7459-64.1816,13.6728-128.8463,37.8442-188.9217,5.6636-14.0762,12.4417-27.7028,19.8824-40.9184l-17.3563,7.063,60.2453,12.4382,145.4157,30.0224,175.2326,36.1784,151.4974,31.2781,49.9721,10.3172c7.7723,1.6047,15.8773,4.1235,23.7871,4.9111,.3541,.0353,.7156,.1478,1.0655,.22l-9.185-7.063c56.2857,90.575,56.261,201.0457,50.4969,304.0233-5.655,101.0288-17.5522,203.6709,6.387,303.399,12.9542,53.9659,37.5332,104.5667,75.5442,145.335,13.5188,14.4994,38.3185-9.0495,28.0955-25.9754-133.2415-220.6023-89.0451-267.2977-80.4675-403.0717,4.8851-77.3265,7.5511-156.3493-10.1159-232.3791-8.4368-36.3074-21.7515-73.3593-42.1206-104.7882-5.5397-8.5476-10.4131-9.1096-18.7799-10.837l-176.4607-36.432-263.7376-54.4511c-52.1145-10.7595-104.1481-22.0859-156.3759-32.2853-.7765-.1516-1.5501-.32-2.3249-.48-6.6365-1.3702-13.8754,.8803-17.3563,7.063-71.3431,126.7148-60.3917,277.6337-72.384,417.6116-13.122,153.1643-44.2745,309.4536-10.265,462.1382,3.9827,17.8801,8.2681,36.2916,15.2943,53.2528,7.3294,17.6932,24.4765,35.5369,44.681,23.4932,8.7498-5.2156,9.9383-12.5774,12.8879-21.2384,1.0587-3.1086,4.1586-6.7243,7.5006-9.0806,9.0939-6.412,20.8519-8.609,30.5428-6.1362,27.8978,7.1188,43.9567,39.1619,58.9269,60.9116,18.7285,27.21,43.0258,53.6387,77.7799,57.1579,30.3776,3.0761,57.0159-14.6811,82.536-28.3905,11.1575-5.9938,23.9638-12.1924,36.1075-13.2441,15.1718-1.3139,28.8741,4.7239,41.4834,12.5737,28.5735,17.7881,52.6833,43.0439,87.3669,48.6794,16.971,2.7575,34.6741,.5737,49.0118-9.5307,12.1183-8.5403,20.4206-20.6098,28.6839-32.6868,6.2126-9.0798,13.2951-19.4546,22.6969-22.8819,11.0154-4.0155,23.3157,.6261,34.6182,5.7001,14.2087,6.3787,28.3306,14.1192,43.6849,17.3801,17.1932,3.6514,34.3268,1.4742,49.8983-6.7698,14.7631-7.816,25.0486-20.9538,38.089-30.9966,12.7083-9.787,27.2029-17.4724,42.6546-21.8261,6.9452-1.9569,14.9745-4.5853,22.2209-4.2528,3.692,.1694,7.0233,1.7509,10.7812,1.7396,5.9095-.0178,10.6794-3.4095,14.2722-7.7271,1.8101-2.1753,3.1774-4.3073,4.6014-6.7077-.6019,1.0147-2.9141,4.4987,1.4453-2.4169,1.3602-2.1578,2.2865-4.6258,2.9375-7.0902,1.7954-6.797,1.1085-13.9739,.0991-20.8118-1.996-13.5215-7.3146-26.9064-16.7745-36.9484-13.5925-14.4289-35.2989,7.3365-21.735,21.735Z"/></g><path class="d" d="M614.2593,1586.8226c-35.2335-53.721-33.9722-120.6946-32.6209-182.4749,.4328-19.7876-30.3052-19.783-30.7379,0-1.4687,67.1469-1.4075,139.7066,36.8176,197.9889,10.8052,16.4748,37.4324,1.0918,26.5413-15.514h0Z"/><path class="d" d="M565.8131,1352.4474c19.7784,0,19.8112-30.7379,0-30.7379-19.7784,0-19.8112,30.7379,0,30.7379h0Z"/><path class="d" d="M659.5234,811.879c12.3983-46.9203,59.5547-79.6846,107.7144-76.1819,8.2884,.6028,15.369-7.4952,15.369-15.369,0-8.8189-7.0566-14.7644-15.369-15.369-61.4633-4.4702-121.6756,39.4132-137.3544,98.7485-5.0584,19.143,24.5828,27.3096,29.6399,8.1714h0Z"/><path class="d" d="M839.6384,735.3566c19.7784,0,19.8112-30.7379,0-30.7379-19.7784,0-19.8112,30.7379,0,30.7379h0Z"/><path class="d" d="M1192.5287,1587.4562c2.1161,9.7773,6.171,19.8541,10.8437,28.6992,3.0073,5.6927,6.0261,11.3726,9.3554,16.887,2.4729,4.096,5.0766,8.1129,7.8249,12.0297,2.5539,3.6398,5.449,7.0973,7.6092,10.9962,3.8998,7.0387,14.1619,9.9401,21.0277,5.5136,7.1282-4.5956,9.6855-13.4979,5.5136-21.0277-2.0647-3.7265-4.8143-7.0357-7.2657-10.5066-2.7601-3.9081-5.3755-7.9181-7.8593-12.0072-3.3373-5.4943-6.3654-11.1541-9.3666-16.8353l-1.52-2.8774c-.1845-.3493-.3497-.7244-.5599-1.0599-1.0271-1.6392,1.4625,3.6683,1.3228,3.2355-.4762-1.4752-1.1628-2.91-1.7206-4.3565-2.1194-5.4953-4.3163-11.0919-5.5651-16.8621-1.7029-7.8681-11.3122-13.1916-18.9057-10.7343-8.2857,2.6814-12.5588,10.4758-10.7343,18.9057h0Z"/><g><path class="d" d="M1162.7978,1247.2889c-7.457,10.4625-.5261,22.8763,.8362,35.6518,6.391,59.9339,23.036,118.7611,48.9945,173.1585,7.9107,16.5772,17.3561,33.4912,32.9453,43.2052,15.0549,9.381,33.724,10.6809,51.4478,9.962,3.561-.1444,7.4928-.5259,9.9264-3.1295,5.2083-5.572-.9626-14.1569-6.4639-19.4398-28.4396-27.3104-46.7004-63.6286-59.5881-100.8923-12.8877-37.2636-20.9027-76.0178-32.1245-113.8165-1.3936-4.694-3.0014-9.6336-6.7115-12.8291-10.1209-8.7171-31.0833-1.1037-35.7887-13.6048l-3.4736,1.7346Z"/><path class="d" d="M1149.5272,1239.5319c-6.9864,11.2297-5.8182,23.326-3.0127,35.6719,2.6853,11.8171,3.5898,23.9269,5.4279,35.9071,3.7518,24.4537,9.2014,48.6433,16.2959,72.3441,7.3471,24.5449,16.511,48.5266,27.1295,71.8398,9.3731,20.579,19.9912,41.0745,38.6771,54.7061,18.5486,13.5315,44.959,16.8735,67.3084,14.2203,14.6545-1.7397,25.908-13.8676,22.1619-29.1401-2.8791-11.738-12.8172-19.3696-20.5566-27.8847-30.7735-33.858-46.3465-78.4935-58.427-121.7912-3.9116-14.0196-7.506-28.1245-11.2019-42.2018-3.5157-13.391-6.4697-27.377-11.4129-40.3264-4.5314-11.8707-13.0462-20.3189-25.7744-22.7387-5.1707-.983-10.4606-1.0371-15.631-1.9149,2.6583,.4513-3.0222-.258-1.4721-.3259,1.8555-.0813-2.0972-.4284-.1747-.0025,.8495,.1882,2.0649,2.9672,.6774-.0978-3.577-7.9013-14.2419-8.9022-21.0277-5.5136l-3.4736,1.7346c-7.4244,3.7074-9.5069,14.2005-5.5136,21.0277,4.4219,7.5601,13.5754,9.235,21.0277,5.5136l3.4736-1.7346-21.0277-5.5136c3.4133,7.5397,10.9271,12.4392,18.7912,14.326,8.3004,1.9915,13.9852,2.0531,20.8401,3.3453l-.8447-.2912c1.8553,1.2575,1.759,1.0389-.2887-.6556,1.5659,3.0727,.5912,.7503,1.837,4.0171,1.9038,4.992,3.0684,10.4125,4.5009,15.557,3.2752,11.7617,6.3282,23.5834,9.4119,35.3963,10.8913,41.722,22.5024,83.8343,43.7455,121.6825,10.0495,17.9048,22.3785,34.6519,36.894,49.1925,1.3257,1.3279,2.7883,2.5704,3.9798,4.0277,.2416,.2956,2.432,3.3519,2.1308,3.2026l-.4531-2.0779c7.2662-5.6014,8.4248-7.9802,3.476-7.1364-2.1077-.4467-5.1191,.1613-7.2918,.1661-9.8752,.0219-20.018-.6695-29.2991-4.364-16.9422-6.7442-25.9816-23.7525-33.5344-39.2839-9.1992-18.9171-17.0278-38.4721-23.7152-58.4114-8.0095-23.8813-14.3334-48.328-18.9034-73.0987-2.2031-11.9416-3.8051-23.9179-5.2748-35.9647-.7562-6.1985-2.0771-12.1323-3.3785-18.2217-.7937-3.714-1.5845-6.4127,.4439-9.6731,10.4793-16.844-16.1019-32.2939-26.5413-15.514Z"/></g><path class="d" d="M1143.4749,1241.6293c-3.2236,52.2723,8.6522,104.0696,26.2494,152.9918,8.7912,24.4407,18.8621,48.4654,29.521,72.1466,9.7648,21.6948,21.6061,43.0499,40.6505,57.9546,17.7192,13.8676,40.5498,20.925,62.7292,14.6281,21.4114-6.0789,36.3265-26.2544,36.3991-50.8957,.1603-54.4511-36.2798-80.7325-49.3914-97.1569-12.6074-15.7928-14.7935-20.4618-21.9999-39.3411-7.6873-20.1389-7.5843-35.8225-8.7098-58.7497-1.2275-25.0039,.2017-69.2886,4.6775-93.7206,1.238-6.7579-5.908,17.204-12.9479,15.2696-6.1851-1.6995-14.4192,2.0941-15.665,8.8943-3.8003,20.7447-8.4933,41.5346-9.671,62.6478-1.1658,20.8994,1.603,42.2088,6.6262,62.486,9.7582,39.3916,27.9165,78.5468,53.8979,109.8734,6.9883,8.426,15.0269,15.9362,21.817,24.5348,5.7812,7.3209,9.5184,14.297,2.9174,22.4358-10.7783,13.2894-31.344,12.8353-45.2735,5.4816-18.6837-9.8634-30.114-28.1675-39.1237-46.6114-10.3261-21.1389-19.2901-43.115-27.6283-65.1042-19.1391-50.4724-32.9592-103.3851-29.6056-157.765,1.0095-16.3694-24.4632-16.3095-25.4691,0h0Z"/></g><g><ellipse class="d" cx="809.69" cy="1007.4598" rx="48.4954" ry="101.4229"/><path class="d" d="M809.6912,1111.9515c-28.9206,0-51.5675-45.8944-51.5675-104.4904s22.6469-104.4962,51.5675-104.4962,51.5675,45.9001,51.5675,104.4962-22.6469,104.4904-51.5675,104.4904Zm0-202.8445c-24.62,0-45.4254,45.0422-45.4254,98.354s20.8054,98.3483,45.4254,98.3483,45.4254-45.0422,45.4254-98.3483-20.8054-98.354-45.4254-98.354Z"/></g><g><ellipse class="d" cx="651.4319" cy="1007.4598" rx="48.4954" ry="101.4229"/><path class="d" d="M651.4315,1111.9515c-28.9206,0-51.5675-45.8944-51.5675-104.4904s22.6469-104.4962,51.5675-104.4962,51.5675,45.9001,51.5675,104.4962-22.6469,104.4904-51.5675,104.4904Zm0-202.8445c-24.62,0-45.4254,45.0422-45.4254,98.354s20.8054,98.3483,45.4254,98.3483,45.4254-45.0422,45.4254-98.3483-20.8054-98.354-45.4254-98.354Z"/></g><g><g><path class="d" d="M540.3149,843.5212c7.3805-43.4073,14.8417-86.828,23.718-129.9465,9.5267-46.2787,34.1621-83.2403,72.3926-111.4085,37.7236-27.7946,78.6808-48.5433,122.9261-64.2373,35.2138-12.4906,70.9043-18.6861,107.8443-19.9885,17.3688-.6125,34.7408-1.148,52.1057-1.8575,2.514-.1027,4.9816-.7701,7.1792-1.9956,4.8432-2.7009,9.3471-6.074,14.3401-8.4298,32.4535-15.3122,70.3769-4.2822,88.9298,26.1138,2.4211,3.9666,5.115,5.9509,9.2181,7.3284,26.2168,8.8014,49.8841,22.074,70.1662,41.0124,22.8563,21.342,44.9164,43.5913,68.5226,64.0628,32.8235,28.4651,56.6986,62.9971,74.2868,102.2818,10.2473,22.888,11.6272,47.3555,11.4954,71.8397-.1136,21.1165-1.3079,42.2435-2.5695,63.3332-1.4969,25.0256-3.3603,50.0362-5.6549,74.9991-.318,3.4591-3.5456,8.8093-6.2546,9.3844-4.0695,.864-9.1687-3.5135-13.2715-5.451-3.5949-1.6976-6.1037-3.1789-9.639-5.1085-19.2977-10.5334-38.8757-20.5547-58.1382-31.1505-16.0029-8.8027-31.7304-18.1086-47.5183-27.2972-4.1917-2.4395-7.1431-2.6315-11.4081,1.0511-52.108,44.9932-113.0926,63.4503-181.1346,57.438-21.3067-1.8827-42.0628-9.3288-63.3329-12.4361-40.7055-5.9466-81.5142-11.4528-122.4388-15.5597-38.9706-3.9108-76.5683,2.9295-113.0306,17.7606-26.046,10.5942-52.8571,19.3565-79.5135,28.3857-15.8437,5.3667-32.0215,9.9043-49.0654,9.1394-16.3302-.7327-26.9875-13.5561-22.5203-29.2043,2.7719-9.7095,7.4244-19.6584,13.7784-27.4153,15.0683-18.3954,31.5856-35.6045,47.5679-53.2839,.5037-.5572,.7852-1.2786,.7762-2.0297-.1048-8.7252-1.2992-18.2605,.2428-27.3305Zm574.4143,12.0515c8.4532-47.2648,7.7504-95.0392,2.0418-142.1661-5.8174-48.0257-20.3878-93.8402-58.0927-128.3849-2.0219-1.8525-3.8887-3.865-5.6072-6.002-23.0819-28.7031-54.4224-41.9361-89.718-47.3454-21.2914-3.2632-42.669-4.6985-64.3186-2.7212-22.3396,2.0402-44.8698,2.033-67.1938,4.1904-14.1483,1.3674-28.4606,3.7834-42.0287,7.9255-52.674,16.0803-102.7091,37.5145-146.9491,71.4824-34.5147,26.5007-57.749,59.9189-66.4546,102.2716-9.3874,45.67-16.7498,91.7571-24.867,137.685-.7195,4.0705-.4907,8.3083-.7271,12.9563,1.2964-.2154,2.1773-.1444,2.823-.5,39.1512-21.5742,81.8814-32.9451,124.8054-43.7299,38.464-9.6643,77.704-12.1374,117.1924-13.3792,36.4261-1.1455,71.7165,4.8613,107.3161,11.572,53.4937,10.0836,106.648,21.0919,158.2236,38.6786,14.9781,5.1075,29.5539,11.3948,45.6583,17.792,1.6967,.674,3.6048-.3436,4.0036-2.1253,1.4058-6.2811,2.8213-12.2098,3.8926-18.1999Zm-56.6434,14.4668c-53.8462-18.4831-109.7872-28.1652-165.2639-40.201-62.4313-13.5448-124.373-12.2531-186.2878-1.6999-50.7931,8.6576-100.495,22.6647-146.1553,47.6131-10.0096,5.4693-18.8034,13.6732-27.0319,21.762-10.1836,10.0107-19.6774,20.8324-28.5362,32.0407-5.6477,7.1458-10.3786,15.28-14.1183,23.6011-4.4439,9.8874,.6739,18.0923,11.3806,17.1881,13.4753-1.1382,27.168-3.3609,40.0207-7.4566,27.8491-8.8745,55.6142-18.2712,82.6984-29.2231,39.0131-15.7758,79.1952-22.4454,120.8678-18.2473,38.2929,3.8575,76.5026,8.7377,114.6088,14.1537,15.1784,2.1573,29.8373,7.7825,44.9779,10.4227,63.0767,10.9988,122.2215,1.8513,175.3807-35.9324,6.6376-4.7177,13.1128-9.6642,19.6328-14.5452,.4891-.3662,.732-1.0615,1.5367-2.2833-14.705-5.8234-28.991-12.1397-43.711-17.1927Zm21.0661-280.9897c24.4809,26.1397,35.4488,58.5054,44.2852,92.3578,5.8745,22.505,6.2122,45.2205,8.0093,67.9978,2.9983,37.9998,.5373,75.6771-5.4724,113.193-.9633,6.0134-2.7413,11.8963-4.4062,18.412-.3286,1.286,.2389,2.6366,1.3897,3.2979,18.9863,10.91,38.5389,22.4085,58.3752,33.3955,19.1953,10.6317,38.6618,20.7743,58.6234,31.4071,1.7781,.9471,3.9722-.1049,4.3201-2.0892,1.0335-5.8941,2.2693-11.9202,2.5416-17.9895,1.6282-36.2886,2.2727-72.6294,4.3977-108.8855,2.4358-41.5606-11.2499-77.7932-33.465-111.6297-13.1681-20.0567-29.1997-38.0744-47.1007-54.0501-20.922-18.6718-40.6901-38.6237-61.2686-57.6862-16.3498-15.1451-33.4387-29.3935-54.4291-37.9639-1.4216-.5805-2.8175-1.2291-4.2599-1.7499-.3367-.1216-.8151,.1494-1.3329,.2625,9.9631,10.606,19.8924,21.1495,29.7925,31.7203Zm-97.9681-66.7384l4.8006,1.2069c3.7032,.931,5.2949-4.5926,1.6393-5.6956-1.7142-.5172-3.4584-.9567-5.2015-1.3103-3.7457-.7598-4.945,4.8672-1.2383,5.7991Z"/><path class="d" d="M504.2207,992.6091c-1.3897,0-2.7851-.0286-4.192-.0915-11.2663-.509-21.1371-5.5359-27.0848-13.794-5.6789-7.8921-7.2287-17.7687-4.3635-27.8168,3.3513-11.7352,8.8986-22.7156,15.6127-30.9165,11.0776-13.5253,23.0358-26.5358,34.5995-39.1174,3.8374-4.1691,7.6691-8.3439,11.4779-12.5359-.0515-1.4869-.1201-3.0024-.1887-4.5351-.3088-6.7255-.6577-14.3488,.6291-21.9092v-.0057c7.8921-46.4148,15.1323-88.2544,23.785-130.2713,9.8423-47.8559,35.463-87.3165,76.1532-117.2894,37.1101-27.3479,78.1491-48.7996,125.4446-65.5789,35.0398-12.4329,71.2692-19.1527,110.7584-20.5424l16.2303-.5605c11.9411-.4003,23.8822-.8064,35.8176-1.2925,1.0237-.04,2.0131-.3088,2.848-.7778,1.7557-.9779,3.4771-2.0702,5.1985-3.1626,3.0367-1.9158,6.1764-3.8946,9.7222-5.5645,36.807-17.3741,80.4138-4.5408,101.3965,29.8528,1.1266,1.8358,1.9158,2.4591,4.009,3.1626,28.5203,9.5792,53.3175,24.0881,73.7112,43.1321,7.7949,7.2745,15.4983,14.6633,23.2017,22.0464,14.5775,13.9713,29.6469,28.4173,45.0537,41.771,32.4377,28.1371,57.561,62.6965,76.7994,105.6628,11.0718,24.7458,12.4787,51.0929,12.3414,75.8729-.1087,20.9827-1.241,41.3364-2.5907,63.8632-1.527,25.6379-3.4371,50.9728-5.6732,75.3125-.5948,6.4509-5.7761,16.2932-13.9427,18.0203-6.6454,1.4354-12.3986-2.0359-16.5963-4.558-.9894-.5948-1.9444-1.1895-2.848-1.6185-2.9452-1.3897-5.2099-2.6364-7.7949-4.0719l-2.3448-1.2868c-9.0416-4.9354-18.1404-9.7565-27.2392-14.5718-10.3398-5.4787-20.6796-10.9575-30.9337-16.602-13.1421-7.223-26.2613-14.8864-38.9516-22.2924l-8.7728-5.1184c-.0286-.0172-.0515-.0286-.0801-.0458-.0229,.0172-.04,.0343-.0629,.0515-53.2718,46.003-116.6603,66.0993-188.3584,59.7685-12.6503-1.1209-24.9803-4.0547-36.9042-6.897-9.2875-2.2075-18.0604-4.3006-26.9762-5.5988-33.2269-4.8554-77.1197-11.0089-122.0018-15.5097-35.8233-3.6029-71.2749,1.9959-108.3907,17.0939-22.8528,9.2932-46.5234,17.2711-69.4163,24.9917l-10.6372,3.5915c-15.0522,5.0956-31.2711,9.7393-48.445,9.7393Zm-5.3072-32.0832c.1373,0,.9436,.223,2.339,.1144,14.4746-1.2238,26.8675-3.5229,37.8821-7.0343,22.7499-7.2516,52.637-17.0996,82.0036-28.9721,41.4508-16.7622,83.6793-23.1273,125.5018-18.9125,34.9026,3.5229,72.5217,8.1666,115.0018,14.2058,8.7385,1.241,17.1625,3.5114,25.312,5.7132,6.8856,1.8529,13.388,3.6086,19.9705,4.7581,64.7725,11.2892,119.7256,.0686,168.0563-34.2735,2.7451-1.9502,5.4616-3.9403,8.1609-5.9534-9.6364-3.9518-18.7809-7.6805-28.2172-10.9174h0c-41.9712-14.406-86.2871-23.6134-129.139-32.5121-11.678-2.4248-23.3618-4.8554-35.0284-7.3831-56.869-12.3414-116.586-12.8733-182.588-1.6185-56.6402,9.6593-103.4553,24.8888-143.116,46.5635-9.0759,4.9526-17.2654,12.6731-24.8773,20.1592-9.2475,9.0874-18.5751,19.5587-27.7253,31.1338-4.9068,6.2165-9.2418,13.4681-12.8733,21.5489-.9093,2.0131-.7721,3.1854-.6863,3.3856,.0057-.0057,.0114-.0057,.0229-.0057Zm735.7737-15.2181c0,.0114,0,.0172-.0057,.0286l.0057-.0286Zm9.8194-4.8096l.0286,.0172c-.0114-.0057-.0172-.0114-.0286-.0172Zm-112.1995-62.0389l11.7295,6.7655c13.6911,7.9207,27.8569,16.1159,42.0169,23.9566,14.0628,7.7892,28.0227,15.1837,42.8004,23.0072l7.4232,3.9461c.4003-2.5678,.6977-5.0727,.8064-7.5318,.652-14.486,1.1438-28.9721,1.6413-43.4638,.7263-21.4746,1.4869-43.6868,2.768-65.5617,2.0931-35.7947-8.0351-69.3877-31.883-105.7143-12.1756-18.5407-27.4623-36.0807-45.4426-52.128-12.4387-11.1004-24.6142-22.7785-36.3838-34.0733-8.0637-7.7434-16.1331-15.4868-24.3283-23.093,13.6168,21.3773,21.9549,45.8314,29.4067,74.3803,4.884,18.7123,6.1192,37.4647,7.3088,55.5936,.3088,4.6952,.6176,9.3962,.9894,14.0971,2.8709,36.3895,1.0523,74.1744-5.5645,115.4994-.7892,4.9068-2.0016,9.4877-3.2884,14.3202Zm-37.8879,3.2598c-.0229,.0114-.04,.0286-.0572,.04l.0572-.04Zm-289.6806-83.7479c33.9704,0,66.7284,5.6045,100.0182,11.8839,48.7881,9.196,105.3769,20.5538,159.5637,39.0316,11.1405,3.7974,21.8806,8.1552,33.2555,12.7761,1.8186,.7377,3.6544,1.4812,5.5016,2.2304,.7549-3.3742,1.464-6.6969,2.0588-10.0367h0c7.5604-42.2571,8.2009-87.8198,1.9616-139.2786-6.6911-55.2391-24.1682-94.1277-55.0046-122.3735-2.339-2.1503-4.5637-4.5294-6.6111-7.0743-19.4043-24.1339-45.9687-38.0594-83.6049-43.8241-22.8585-3.5057-43.1264-4.3578-61.9588-2.6536-11.0661,1.0122-22.258,1.5327-33.0782,2.0359-11.2205,.5261-22.8242,1.0637-34.0619,2.1503-15.1837,1.4698-28.3029,3.9403-40.1182,7.549-59.8371,18.2605-105.5484,40.4671-143.8652,69.891-34.365,26.3871-54.9188,57.9556-62.8395,96.5068-6.7998,33.0725-12.6445,66.9915-18.2891,99.7952-1.8987,11.0375-3.7974,22.0693-5.7361,33.0954,35.3601-17.3341,72.8476-27.5137,114.1383-37.8879,37.4647-9.4133,74.7692-12.2728,119.2567-13.6739,3.1511-.0972,6.2908-.143,9.4133-.143Zm228.1793-250.7919c1.384,.9493,2.7451,1.9216,4.089,2.9167l2.4134-.5376c-1.1781-.4175-2.3619-.8235-3.5515-1.2238-1.0351-.3489-2.0188-.732-2.951-1.1552Zm-36.9042-17.8602c11.1119,3.6144,21.2744,8.2009,30.5333,13.7712-1.9273-1.7157-3.6029-3.7688-5.107-6.2336-5.7933-9.4877-13.8798-16.7908-23.1674-21.5889,1.2124,2.625,1.527,5.6846,.692,8.7214-.5719,2.0645-1.6013,3.866-2.951,5.33Zm-14.0914-3.9518c.6634,.1544,1.3268,.3203,1.9845,.4804,2.2247-.732,4.0719-2.5792,4.6095-4.9583,.6005-2.6307-.5605-5.3815-2.6707-6.9371-1.0065,.143-1.973,.509-2.8251,1.0523l-1.8358,7.3088,1.8243-7.2973c-1.3439,.8693-2.3848,2.1961-2.8251,3.7916-.652,2.3505,.1087,4.8554,1.7386,6.5596Zm-44.6591-6.4223c8.8357,.6005,17.9974,1.6356,27.5652,3.0997,1.6242,.2516,3.2255,.5147,4.8153,.7892-.5433-1.9673-.6119-4.1062-.1258-6.2565,.7606-3.357,2.7451-6.0849,5.3815-7.812-9.9452-.6806-20.2507,1.1381-29.9214,5.7018-2.4706,1.1667-4.9755,2.7451-7.629,4.4207-.0286,.0172-.0572,.04-.0858,.0572Z"/></g><g><path class="d" d="M1106.833,875.8978c1.6967,.674,3.6048-.3436,4.0036-2.1253,1.4058-6.2811,2.8213-12.2098,3.8926-18.1999,8.4532-47.2648,7.7504-95.0392,2.0418-142.1661-5.8174-48.0257-20.3878-93.8402-58.0927-128.3849-2.0219-1.8525-3.8887-3.865-5.6072-6.002-23.0819-28.7031-54.4224-41.9361-89.718-47.3454-21.2914-3.2632-42.669-4.6985-64.3186-2.7212-22.3396,2.0402-44.8698,2.033-67.1938,4.1904-14.1483,1.3674-28.4606,3.7834-42.0287,7.9255-52.674,16.0803-102.7091,37.5145-146.9491,71.4824-34.5147,26.5007-57.749,59.9189-66.4546,102.2716-9.3874,45.67-16.7498,91.7571-24.867,137.685-.7195,4.0705-.4907,8.3083-.7271,12.9563,1.2964-.2154,2.1773-.1444,2.823-.5,39.1512-21.5742,81.8814-32.9451,124.8054-43.7299,38.464-9.6643,77.704-12.1374,117.1924-13.3792,36.4261-1.1455,71.7165,4.8613,107.3161,11.572,53.4937,10.0836,106.648,21.0919,158.2236,38.6786,14.9781,5.1075,29.5539,11.3948,45.6583,17.792Z"/><path class="d" d="M1107.9216,885.8482c-1.5841,0-3.174-.2974-4.6838-.8979h0c-4.4322-1.7614-8.75-3.5114-12.9934-5.2385-11.1061-4.5065-21.6004-8.7671-32.2147-12.3872-52.9687-18.0604-108.7567-29.2523-156.8815-38.3225-35.2514-6.6454-69.8395-12.5302-105.211-11.4093-43.2293,1.3554-79.35,4.1005-115.1219,13.0906-45.0422,11.3177-85.3435,22.3553-122.4764,42.8119-2.1675,1.1895-4.1405,1.3897-5.3186,1.5098l-.6005,.0686-11.964,2.0016,.6291-12.1127c.0743-1.4126,.0972-2.7851,.1201-4.1291,.0629-3.2083,.1258-6.531,.7377-10.0138,2.2132-12.513,4.3693-25.026,6.5253-37.539,5.6732-32.9582,11.5351-67.0429,18.3978-100.4186,8.7843-42.7318,32.3577-79.0813,70.0682-108.0362,40.2212-30.8879,87.8941-54.1067,150.0359-73.0707,13.0677-3.9975,27.4451-6.714,43.9328-8.3096,11.7238-1.1323,23.5734-1.6814,35.0341-2.2189,10.6029-.4918,21.5718-1.0008,32.209-1.973,20.4509-1.8815,42.2514-.9551,66.6826,2.7908,42.1542,6.4624,73.5053,23.1044,95.832,50.8755,1.4412,1.7843,2.9853,3.4428,4.6037,4.924,34.4508,31.5627,53.8951,74.2716,61.1753,134.389,6.4738,53.409,5.7818,100.8589-2.1217,145.0548-.8922,4.9812-2.0073,9.9223-3.1683,15.0465l-.8064,3.5629c-.8178,3.6487-3.1797,6.7369-6.4853,8.4812-1.8529,.9779-3.8946,1.4698-5.9362,1.4698Zm-303.183-87.877c33.9704,0,66.7284,5.6045,100.0182,11.8839,48.7881,9.196,105.3769,20.5538,159.5637,39.0316,11.1405,3.7974,21.8806,8.1552,33.2555,12.7761,1.8186,.7377,3.6544,1.4812,5.5016,2.2304,.7549-3.3742,1.464-6.6969,2.0588-10.031,7.5604-42.2628,8.2009-87.8255,1.9616-139.2844-6.6911-55.2391-24.1682-94.1277-55.0046-122.3735-2.339-2.1503-4.5637-4.5294-6.6111-7.0743-19.4043-24.1339-45.9687-38.0594-83.6049-43.8241-22.8585-3.5057-43.1264-4.3578-61.9588-2.6536-11.0661,1.0122-22.258,1.5327-33.0782,2.0359-11.2205,.5261-22.8242,1.0637-34.0619,2.1503-15.1837,1.4698-28.3029,3.9403-40.1182,7.549-59.8371,18.2605-105.5484,40.4671-143.8652,69.891-34.365,26.3871-54.9188,57.9556-62.8395,96.5068-6.7998,33.0725-12.6445,66.9915-18.2891,99.7952-1.8987,11.0375-3.7974,22.0693-5.7361,33.0954,35.3601-17.3341,72.8476-27.5137,114.1383-37.8879,37.4647-9.4133,74.7692-12.2728,119.2567-13.6739,3.1511-.0972,6.2908-.143,9.4133-.143Z"/></g><g><path class="d" d="M1101.7969,887.2321c-14.705-5.8234-28.991-12.1397-43.711-17.1927-53.8462-18.4831-109.7872-28.1652-165.2639-40.201-62.4313-13.5448-124.373-12.2531-186.2878-1.6999-50.7931,8.6576-100.495,22.6647-146.1553,47.6131-10.0096,5.4693-18.8034,13.6732-27.0319,21.762-10.1836,10.0107-19.6774,20.8324-28.5362,32.0407-5.6477,7.1458-10.3786,15.28-14.1183,23.6011-4.4439,9.8874,.6739,18.0923,11.3806,17.1881,13.4753-1.1382,27.168-3.3609,40.0207-7.4566,27.8491-8.8745,55.6142-18.2712,82.6984-29.2231,39.0131-15.7758,79.1952-22.4454,120.8678-18.2473,38.2929,3.8575,76.5026,8.7377,114.6088,14.1537,15.1784,2.1573,29.8373,7.7825,44.9779,10.4227,63.0767,10.9988,122.2215,1.8513,175.3807-35.9324,6.6376-4.7177,13.1128-9.6642,19.6328-14.5452,.4891-.3662,.732-1.0615,1.5367-2.2833Z"/><path class="d" d="M500.5034,980.1533c-7.4003,0-13.7025-2.9967-17.5457-8.4183-4.3921-6.1993-4.8153-14.4288-1.1552-22.5726,4.2892-9.5392,9.4591-18.169,15.361-25.6494,9.6593-12.2099,19.5301-23.2932,29.3552-32.9467,8.2124-8.0751,17.9174-17.2082,29.1951-23.3618,41.5823-22.727,90.3819-38.6428,149.1838-48.668,68.5013-11.6723,130.6431-11.0833,189.9883,1.7786,11.6094,2.522,23.2417,4.9354,34.8626,7.3488,43.4467,9.0245,88.3688,18.3577,131.5009,33.164,10.3398,3.5457,20.5424,7.732,30.4075,11.781,4.5523,1.8644,9.116,3.7402,13.7254,5.5645l11.1405,4.415-7.0057,10.6887c-.5719,.9837-1.5327,2.6307-3.4428,4.0547l-4.1748,3.134c-5.1756,3.8946-10.3512,7.7892-15.6298,11.5408-52.0651,36.9957-113.5435,49.6574-182.6967,37.5848-7.4518-1.2982-14.6919-3.2541-21.6919-5.1413-7.9321-2.1389-15.4239-4.1634-22.9843-5.2385-42.2114-5.9991-79.5731-10.6086-114.2126-14.1029-38.637-3.8889-77.7602,2.0302-116.2371,17.5857-29.9786,12.1241-60.3175,22.1208-83.399,29.4753-12.4215,3.9575-26.2098,6.5367-42.1599,7.8807-.8064,.0686-1.6013,.1029-2.3848,.1029Zm-1.5899-19.6273c.1373,0,.9436,.223,2.339,.1144,14.4746-1.2238,26.8675-3.5229,37.8821-7.0343,22.7499-7.2516,52.637-17.0996,82.0036-28.9721,41.4508-16.7622,83.6793-23.1273,125.5018-18.9125,34.9026,3.5229,72.5217,8.1666,115.0018,14.2058,8.7385,1.241,17.1625,3.5114,25.312,5.7132,6.8856,1.8529,13.388,3.6086,19.9705,4.7581,64.7725,11.2892,119.7256,.0686,168.0563-34.2735,2.7451-1.9502,5.4616-3.9403,8.1609-5.9477-9.6364-3.9575-18.7809-7.6862-28.2172-10.9231-41.9712-14.406-86.2871-23.6134-129.139-32.5121-11.678-2.4248-23.3618-4.8554-35.0284-7.3831-56.869-12.3414-116.586-12.8733-182.588-1.6185-56.6402,9.6593-103.4553,24.8888-143.116,46.5635-9.0759,4.9526-17.2654,12.6731-24.8773,20.1592-9.2475,9.0874-18.5751,19.5587-27.7253,31.1338-4.9068,6.2165-9.2418,13.4681-12.8733,21.5489-.9093,2.0131-.7721,3.1854-.6863,3.3856,.0057-.0057,.0114-.0057,.0229-.0057Zm595.5057-78.8068c-.0229,.0114-.04,.0286-.0572,.04l.0572-.04Z"/></g><g><path class="d" d="M1049.3594,557.3294c9.9631,10.606,19.8924,21.1495,29.7925,31.7203,24.4809,26.1397,35.4488,58.5054,44.2852,92.3578,5.8745,22.505,6.2122,45.2205,8.0093,67.9978,2.9983,37.9998,.5373,75.6771-5.4724,113.193-.9633,6.0134-2.7413,11.8963-4.4062,18.412-.3286,1.286,.2389,2.6366,1.3897,3.2979,18.9863,10.91,38.5389,22.4085,58.3752,33.3955,19.1953,10.6317,38.6618,20.7743,58.6234,31.4071,1.7781,.9471,3.9722-.1049,4.3201-2.0892,1.0335-5.8941,2.2693-11.9202,2.5416-17.9895,1.6282-36.2886,2.2727-72.6294,4.3977-108.8855,2.4358-41.5606-11.2499-77.7932-33.465-111.6297-13.1681-20.0567-29.1997-38.0744-47.1007-54.0501-20.922-18.6718-40.6901-38.6237-61.2686-57.6862-16.3498-15.1451-33.4387-29.3935-54.4291-37.9639-1.4216-.5805-2.8175-1.2291-4.2599-1.7499-.3367-.1216-.8151,.1494-1.3329,.2625Z"/><path class="d" d="M1241.3612,959.1991c-2.0645,0-4.1291-.4975-5.9934-1.4926l-15.6355-8.2982c-14.8578-7.8692-28.8977-15.3038-43.115-23.1845-14.3202-7.9264-28.566-16.1674-42.3372-24.1339l-16.1731-9.3333c-4.924-2.8366-7.3717-8.647-5.982-14.1372l1.281-4.8954c1.1895-4.4493,2.3047-8.647,2.951-12.6674,6.3652-39.7808,8.1266-76.0502,5.3815-110.8842-.3774-4.7867-.692-9.5678-1.0065-14.3488-1.1838-18.0203-2.3047-35.0341-6.7197-51.9564-9.4191-36.0692-20.1592-64.8697-41.9712-88.1629l-41.4965-44.173,16.4076-3.643c1.1381-.3603,3.8546-1.1209,7.0057,0,1.1667,.4232,2.2704,.8864,3.3742,1.3611l1.3154,.5547c22.5611,9.2132,40.896,24.5856,57.3494,39.8266,8.5212,7.8921,16.8994,15.9329,25.2776,23.9737,11.6437,11.1748,23.6878,22.727,35.8634,33.593,19.2499,17.1796,35.6518,36.0121,48.7595,55.9711,25.901,39.4606,37.3674,77.9146,35.0398,117.5525-1.2639,21.629-2.0131,43.7212-2.7451,65.0813-.4918,14.5604-.9894,29.115-1.6413,43.664-.2574,5.7361-1.2296,11.1691-2.1732,16.4247l-.5033,2.808c-.7034,4.0032-3.2998,7.446-6.9428,9.2189-1.7557,.8578-3.6658,1.281-5.5702,1.281Zm-6.674-13.8913c0,.0114,0,.0172-.0057,.0286l.0057-.0286Zm9.8194-4.8096l.0286,.0172c-.0114-.0057-.0172-.0114-.0286-.0172Zm-112.1995-62.0389l11.7295,6.7655c13.6911,7.9207,27.8569,16.1159,42.0169,23.9566,14.0628,7.7892,28.0227,15.1837,42.8004,23.0072l7.4232,3.9461c.4003-2.5678,.6977-5.0727,.8064-7.5318,.652-14.486,1.1438-28.9721,1.6413-43.4638,.7263-21.4746,1.4869-43.6868,2.768-65.5617,2.0931-35.7947-8.0351-69.382-31.883-105.7143-12.1756-18.5407-27.4623-36.0807-45.4426-52.128-12.4387-11.1004-24.6142-22.7785-36.3838-34.0733-8.0637-7.7434-16.1331-15.4868-24.3283-23.093,13.6168,21.3773,21.9549,45.8314,29.4067,74.3803,4.884,18.7123,6.1192,37.4647,7.3088,55.5936,.3088,4.6952,.6176,9.3962,.9894,14.0971,2.8709,36.3895,1.0523,74.1744-5.5645,115.4994-.7892,4.9068-2.0016,9.4877-3.2884,14.3202Z"/></g><g><path class="d" d="M981.1832,522.3116c1.6035,.4032,3.2036,.8056,4.8011,1.2074,3.7032,.9314,5.2955-4.592,1.6399-5.6954-1.7144-.5175-3.459-.9572-5.2024-1.311-3.7457-.7601-4.9452,4.8668-1.2386,5.7989Z"/><path class="d" d="M986.7605,533.3624c-1.0351,0-2.0931-.1258-3.1568-.3946l-4.7982-1.2067c-6.754-1.6985-10.8374-8.3725-9.2875-15.1837,1.5384-6.7655,8.0808-10.9861,14.8406-9.6078,2.0417,.4118,4.0833,.9207,6.0907,1.5327,6.6225,1.9959,10.3627,8.8071,8.5155,15.4983-1.5727,5.6675-6.6111,9.3619-12.2042,9.3619Zm-3.7516-18.352c-1.3382,.875-2.3848,2.1961-2.8251,3.7916-.7549,2.7279,.3832,5.6675,2.585,7.3145,2.7222-.4118,5.1184-2.4591,5.7475-5.2271,.6005-2.6364-.5605-5.3872-2.6765-6.9428-1.0065,.143-1.9673,.509-2.8137,1.058l-1.8415,7.3088,1.8243-7.3031Zm.5547-2.1446l.0172,.0057c-.0057,0-.0114-.0057-.0172-.0057h0Z"/></g></g></g><g><g><path d="M1200.7032,993.1806c18.412,0,18.4425-28.6143,0-28.6143-18.412,0-18.4425,28.6143,0,28.6143h0Z"/><g><path d="M1299.2487,1616.6017c11.4457,11.4457,36.3457,108.5503,31.1653,113.6862-2.2195-.2575-4.3999-.8027-6.4846-1.6011-6.4943-2.4871-44.0272-4.9268-68.3486,5.8706-28.2109,12.5242-37.6843,53.8815-67.9916,53.7453-32.7839-.1473-62.9998-34.1198-93.5103-22.1234-23.7445,9.3361-30.5619,41.2096-52.3732,54.447-23.7433,14.4099-54.5201,1.2791-77.0208-15.0031-22.5007-16.2822-45.1636-36.685-72.9331-37.1794-41.402-.7371-74.8129,43.5541-115.9616,38.9216-27.2774-3.0709-47.1244-26.7267-62.3749-49.5501-15.2505-22.8234-30.7125-48.1555-56.2262-58.2817-23.1662-9.1946-55.7562,4.2166-58.9168,27.1409-.6067,4.4006-4.2801,7.7409-8.693,8.2509h0c-2.8333,.3274-5.7241-.5125-7.8356-2.43-6.3062-5.7265-30.4778-83.0716-33.0868-91.4024-49.2739-157.3366,85.8181-257.8072,97.4021-422.2716,8.5527-121.4279-71.5803-250.4589-11.4825-356.318l565.2651,116.7042c64.7293,103.2294-22.9536,215.8687-31.1608,337.4369-8.2072,121.5682,68.7338,271.6546,152.2027,360.4191l-21.6348-60.4619Z"/><path d="M1289.132,1626.7184c1.8163,1.9179-.831-2.0652-.7809-1.0883,.0255,.4973,.9716,1.474,1.2119,1.9358,.7481,1.4374,1.5259,2.8512,2.2174,4.3193,.3429,.7279,2.0576,4.7541,.514,1.0359,.4136,.9963,.8158,1.9973,1.2104,3.0013,.8648,2.2003,1.684,4.4186,2.479,6.6449,4.1759,11.694,7.6855,23.6332,10.905,35.6221,3.0641,11.4103,5.8768,22.9108,8.0882,34.5194,.44,2.31,.8568,4.625,1.2225,6.9481,.1492,.9479,.2839,1.8976,.4235,2.8469-.6469-4.3991-.1264-1.0239-.0584-.0233,.0962,1.417,.0839,2.9016,.2418,4.3099,.006,.0536-.078,1.4708-.0674,1.4731-2.0514-.4555,4.9928-9.8332,3.5584-8.0923l13.9201-3.6794c-5.7529-.9189-10.9903-2.7369-16.8509-3.4105-6.036-.6937-12.1173-.9106-18.1906-.8142-15.998,.2541-32.5399,2.3115-47.3898,8.4833-13.0611,5.4284-23.0128,14.9516-31.8515,25.7569-7.3765,9.0177-15.6174,20.6881-24.0636,25.3899-.8102,.451-1.6843,.9327-2.5494,1.2896,2.5-1.0313-1.9633,.4321-2.0146,.4452-4.1188,1.0591,2.2764,.1199-2.1419,.3327-1.7686,.0852-3.5862,.0472-5.3476-.1318-6.6857-.6795-13.875-3.3023-20.2234-5.9823-14.0806-5.9442-27.679-14.1398-42.8396-17.0923-16.4579-3.2051-32.3863-.202-45.6428,10.2765-11.5853,9.1575-18.8308,22.2148-27.416,33.9659-7.2151,9.8757-16.1264,17.6074-29.4588,17.5082-16.1874-.1205-31.7006-8.9618-44.5842-17.9936-29.057-20.3701-56.6724-45.027-94.8466-39.3193-29.7776,4.4523-52.2997,26.1063-80.1693,35.1825-12.4992,4.0706-25.1596,4.2802-37.3741-2.6177-13.241-7.4777-23.3756-19.7209-31.9836-32.0262-19.0382-27.2157-36.511-59.0919-69.8804-70.589-27.4912-9.4719-66.5018,4.7132-74.3129,34.6598-1.6585,6.3584,1.7219-.5098,5.5956,1.571,1.8572,.9976,3.2822,4.8583,1.7836,1.5839-.5357-1.1706-1.2003-2.2942-1.7494-3.4628-.3735-.7949-.7176-1.6025-1.0775-2.4035-.9081-2.0213,.9855,2.5649-.5166-1.2865-3.7429-9.5972-7.2227-19.2837-10.5551-29.0311-5.6109-16.4124-10.9874-32.916-16.1135-49.4868-8.7217-28.1934-12.0197-57.0992-9.2305-86.5196,2.4648-25.9987,10.5596-53.296,20.1567-78.4643,20.9643-54.9791,50.6939-106.8639,69.0007-163.2377,9.933-30.5877,16.5394-62.4275,18.2544-94.5864,1.8717-35.0979-3.2911-70.2947-9.8281-104.6888-6.5008-34.2038-14.8156-68.0708-20.125-102.4974-4.7753-30.9638-6.9574-63.4662-.1466-94.2914,3.3682-15.2441,8.7769-29.6531,16.3958-43.2795l-16.1572,6.575,56.0831,11.5789,135.3694,27.9483,163.1263,33.6789,141.0309,29.1171,46.5197,9.6044c7.2353,1.4938,14.7804,3.8387,22.1438,4.5718,.3297,.0328,.6662,.1375,.9918,.2048l-8.5504-6.575c11.9583,19.3568,19.4996,40.8783,21.2146,63.6382,1.6946,22.4904-1.1259,44.8744-5.939,66.8221-10.8038,49.2652-29.7383,96.3334-40.4419,145.6363-10.6564,49.0859-10.5403,97.7526-.1998,146.8793,10.4804,49.7914,29.688,97.8085,53.3767,142.7267,25.7091,48.7491,57.5638,94.79,95.2684,135.049,9.45,10.0902,28.7792-.3203,23.9128-13.9201l-21.6348-60.4619c-2.602-7.2718-9.7494-12.15-17.5995-9.9927-7.0323,1.9326-12.6083,10.2897-9.9927,17.5995l21.6348,60.4619,23.9128-13.9201c-46.5586-49.713-83.7548-108.7112-110.9217-171.0699-26.4299-60.6671-43.6675-128.2004-35.6346-194.6565,8.3692-69.2382,40.6801-132.9657,50.4966-201.8858,4.7535-33.3736,3.9378-67.6824-8.7281-99.3558-3.0683-7.6729-6.5309-15.1764-10.6361-22.3523-3.0202-5.2794-5.8656-10.4323-12.1353-12.2571-1.1948-.3478-2.4768-.5114-3.694-.7627l-158.2843-32.6793-249.973-51.6092c-50.2431-10.3732-100.412-21.2488-150.7558-31.1249-.7861-.1542-1.5695-.324-2.3541-.486-6.1616-1.2721-12.9356,.8131-16.1572,6.575-39.7915,71.1669-21.7126,152.7954-5.9107,228.0552,8.0184,38.1894,15.9951,76.7149,16.086,115.908,.0839,36.144-7.4071,71.7323-18.8255,105.9021-20.9865,62.8025-56.0384,119.9178-76.0289,183.0773-9.8751,31.2003-15.5129,64.204-13.5913,96.9909,1.577,26.9069,8.4694,52.3373,16.6618,77.8218,7.4832,23.2785,14.708,46.9759,24.6845,69.3369,1.5612,3.4992,3.2827,7.103,5.9969,9.8858,7.4111,7.5983,19.8681,9.037,29.0521,3.9298,4.8536-2.6991,8.5234-7.0776,10.5588-12.1876,.783-1.9657,1.0931-3.8037,1.5973-5.8317,.2494-1.003,.4906-2.007,.8683-2.9723,.8845-2.2603-.7315,1.3245,.4656-.7932,2.8245-4.9964,6.9763-8.3798,13.6122-10.9921,12.5293-4.9323,25.4455-2.2916,37.5122,6.8249,13.9847,10.5655,23.6784,26.109,33.2348,40.4931,20.5079,30.8682,48.8627,65.3642,90.2554,60.8983,18.0527-1.9477,34.2291-9.8333,49.9369-18.5171,14.1515-7.8234,28.2995-16.7351,44.4332-19.7362,16.8981-3.1433,33.515,5.3668,47.6161,14.871,16.2379,10.9444,30.8581,24.2618,48.6981,32.6808,18.2763,8.6249,40.1483,14.2163,59.8186,6.7137,17.8596-6.812,28.614-21.0029,39.0549-36.2683,7.4437-10.8834,15.5982-22.8925,28.3816-23.4272,14.7955-.6189,30.4527,9.3219,44.3606,15.2917,16.0579,6.8925,35.0393,13.2232,52.2798,6.6607,14.431-5.4931,24.1491-16.9546,33.5318-28.6791,9.1567-11.4421,16.9889-21.5673,30.8433-25.8312,14.9838-4.6115,31.2928-5.4057,46.849-4.0144,.5883,.0526,4.2847,.5211,2.2848,.2142-2.0561-.3156,1.3443,.2579,1.7879,.3795,3.9546,1.084,7.9071,2.6276,12.0855,2.6276,9.2861,0,14.4296-8.0351,14.9393-16.3315,.5289-8.6094-1.671-17.6801-3.3549-26.0783-4.8234-24.0558-11.2291-48.2191-19.8762-71.1959-3.1769-8.4417-6.4211-17.8142-12.7568-24.5043-12.6884-13.3981-32.8979,6.8605-20.2334,20.2334Z"/></g><g><path d="M646.059,1641.093c-33.8318-50.7677-33.6722-116.0966-32.3206-177.0894"/><path d="M658.4128,1633.8719c-32.7993-50.0096-31.6252-112.3562-30.3673-169.8683,.4029-18.4205-28.2115-18.4162-28.6143,0-1.3672,62.5079-1.3103,130.0547,34.274,184.3105,10.0587,15.3366,34.8463,1.0164,24.7077-14.4422h0Z"/></g><path d="M613.3135,1415.6889c18.412,0,18.4425-28.6143,0-28.6143-18.412,0-18.4425,28.6143,0,28.6143h0Z"/><g><path d="M686.7536,908.6633c12.5566-49.1956,63.4627-85.5325,114.0689-81.4225"/><path d="M700.5497,912.4667c11.5417-43.6787,55.4403-74.1794,100.2728-70.9188,7.7158,.5612,14.3072-6.9774,14.3072-14.3072,0-8.2096-6.5691-13.7444-14.3072-14.3072-57.217-4.1614-113.2694,36.6903-127.865,91.9263-4.7089,17.8204,22.8845,25.4228,27.5922,7.6068h0Z"/></g><path d="M868.2211,841.231c18.412,0,18.4425-28.6143,0-28.6143-18.412,0-18.4425,28.6143,0,28.6143h0Z"/><g><path d="M1210.5275,1630.6583c1.3039,6.3502,6.7942,19.7817,6.7942,19.7817l4.2705,8.0839c4.857,9.194,10.3063,18.0743,16.5157,26.4148,1.7591,2.3628,3.3459,4.6446,4.1486,6.1739"/><path d="M1196.7314,1634.4617c1.9699,9.1018,5.7447,18.4824,10.0945,26.7164,2.7996,5.2994,5.6098,10.5869,8.709,15.7204,2.3021,3.813,4.7259,7.5524,7.2843,11.1986,2.3774,3.3884,5.0726,6.607,7.0835,10.2365,3.6304,6.5524,13.1835,9.2534,19.5749,5.1327,6.6357-4.2781,9.0164-12.5653,5.1327-19.5749-1.922-3.4691-4.4817-6.5496-6.7637-9.7807-2.5694-3.6381-5.0041-7.3711-7.3163-11.1777-3.1068-5.1147-5.9256-10.3835-8.7195-15.6722l-1.415-2.6786c-.1718-.3252-.3255-.6743-.5212-.9867-.9561-1.526,1.3615,3.4148,1.2314,3.0119-.4433-1.3732-1.0824-2.709-1.6018-4.0555-1.9729-5.1157-4.0181-10.3256-5.1807-15.6971-1.5852-7.3245-10.5307-12.2803-17.5995-9.9927-7.7133,2.4961-11.6911,9.7521-9.9927,17.5995h0Z"/></g></g><g><path class="e" d="M1177.8117,918.6698c18.412,0,18.4425-28.6143,0-28.6143-18.412,0-18.4425,28.6143,0,28.6143h0Z"/><g><path class="d" d="M1297.992,1602.5528c11.4457,11.4457,15.2859,38.4225,10.1056,43.5583-1.9615,3.923-4.9749,8.8633-7.0597,8.0649-6.4943-2.4871-14.0393-1.7452-20.4725-.1235-.7125,.1796-1.4847,.343-2.3077,.4914-27.03,4.8743-51.282,19.4007-70.6723,38.853-11.985,12.0232-26.0847,20.4705-42.8877,20.395-32.7839-.1473-62.9998-34.1198-93.5103-22.1234-23.7445,9.3361-30.5619,41.2096-52.3732,54.447-23.7433,14.4099-54.5201,1.2791-77.0208-15.0031-22.5007-16.2822-45.1636-36.685-72.9331-37.1794-41.402-.7371-74.8129,43.5541-115.9616,38.9216-27.2774-3.0709-47.1244-26.7267-62.3749-49.5501-15.2505-22.8234-30.7125-48.1555-56.2262-58.2817-23.1662-9.1946-55.7562,4.2166-58.9168,27.1409-.6067,4.4006-4.2801,7.7409-8.693,8.2509h0c-2.8333,.3274-5.7241-.5125-7.8356-2.43-6.3062-5.7265-9.6057-14.5531-12.2147-22.8839-49.2739-157.3366-9.9699-326.5732,1.614-491.0376,8.5527-121.4279,3.3357-250.2115,63.4335-356.0706l565.2651,116.7042c64.7293,103.2294,52.8704,234.6912,44.6633,356.2594-8.2072,121.5682-7.0902,252.8321,76.3786,341.5966h0Z"/><path d="M1287.8753,1612.6695c3.9697,4.2139,6.9685,12.454,8.0319,20.2136-.269-1.9633,.1209,3.0563,.147,3.5822,.0106,.865-.0115,1.7291-.0665,2.5923,.324-1.8368,.3414-1.9897,.0522-.4586-.4662,1.5687-.284,1.277,.5467-.8752,2.1478-2.6885,1.8669-2.2998-.8428,1.1661-.4635,.7055-3.4964,4.3524-.9824,2.9427l7.2211-1.9533c3.7498,.0418-8.3676-1.5544-5.406-1.216-1.5646-.1787-3.0398-.3781-4.6304-.4034-4.3464-.0692-8.7512,.6762-13.0015,1.4917-7.2929,1.3993-14.5829,3.0459-21.6126,5.4638-14.0568,4.8348-27.3821,11.7227-39.3304,20.5685-11.3825,8.4268-20.7014,20.0392-32.7133,27.4344-10.3391,6.3653-21.2341,7.5679-32.6699,4.3366-24.3278-6.8741-46.0931-25.2748-72.6354-22.45-13.2015,1.405-24.8575,7.4737-34.0455,17.0314-8.6342,8.9816-14.6737,19.942-22.1828,29.7886-5.9949,7.861-13.39,14.7819-24.1108,15.9961-12.395,1.4038-25.2542-3.8737-35.8701-9.751-25.5244-14.1309-45.5893-36.6674-74.2041-45.298-27.2649-8.2235-52.9424,1.4953-76.7984,14.5181-18.7671,10.2449-40.1648,25.4823-62.0822,20.639-25.0031-5.5252-40.3836-30.8569-53.5594-50.5876-15.5399-23.271-33.5537-48.1013-61.4322-57.0684-24.1187-7.7577-54.2149,1.7762-68.2613,23.0873-1.1133,1.6891-7.6639,13.0575-5.8514,14.8997,.3923,.3987,2.7565-2.0457,3.1389-2.1285,1.7998-.3896,2.7974,.7839,2.7301,.142-.1774-1.6927-3.2781-4.9305-4.0951-6.7136-6.6904-14.6009-9.8991-31.9239-13.3741-47.525-28.9084-129.7831-4.7913-264.2911,7.9856-394.5169,6.1526-62.7092,7.6861-125.6362,12.3304-188.4435,4.418-59.7475,12.7282-119.9447,35.2297-175.8697,5.2723-13.1037,11.5821-25.7889,18.5088-38.0915l-16.1572,6.575,56.0831,11.5789,135.3694,27.9483,163.1263,33.6789,141.0309,29.1171,46.5197,9.6044c7.2353,1.4938,14.7804,3.8387,22.1438,4.5718,.3297,.0328,.6662,.1375,.9918,.2048l-8.5504-6.575c52.3971,84.3174,52.3741,187.156,47.0082,283.0192-5.2643,94.0491-16.3396,189.5999,5.9457,282.4381,12.0593,50.2375,34.9402,97.3426,70.3251,135.2942,12.5848,13.4977,32.7862-6.77,20.2334-20.2334-94.1629-100.9934-76.9721-252.7783-68.9872-379.1721,4.5476-71.9843,7.0295-145.5476-9.417-216.3247-7.8539-33.799-20.2488-68.2911-39.2106-97.5487-5.157-7.957-9.6937-8.4802-17.4824-10.0883l-164.2696-33.915-245.5168-50.6892c-48.514-10.0162-96.9528-20.5601-145.5724-30.0548-.7228-.1412-1.443-.2979-2.1643-.4468-6.178-1.2755-12.9168,.8195-16.1572,6.575-66.4142,117.9605-56.2194,258.4529-67.3832,388.7601-12.2155,142.5826-41.2157,288.0744-9.5558,430.2105,3.7075,16.6448,7.6969,33.7843,14.2376,49.5737,6.823,16.4708,22.7855,33.0818,41.5941,21.8702,8.1453-4.8553,9.2517-11.7084,11.9976-19.7711,.9856-2.8939,3.8713-6.2597,6.9824-8.4533,8.4656-5.969,19.4113-8.0143,28.4327-5.7123,25.9704,6.627,40.9199,36.4563,54.8558,56.7034,17.4346,25.3302,40.0533,49.9329,72.4063,53.2091,28.2789,2.8636,53.0769-13.6669,76.8338-26.4291,10.3867-5.5797,22.3082-11.3501,33.6129-12.3291,14.1236-1.2231,26.8793,4.3975,38.6174,11.705,26.5994,16.5592,49.0436,40.0702,81.331,45.3163,15.7985,2.567,32.2786,.5341,45.6257-8.8722,11.2811-7.9503,19.0098-19.1859,26.7023-30.4285,5.7834-8.4525,12.3765-18.1106,21.1288-21.3011,10.2544-3.7381,21.7049,.5828,32.2266,5.3063,13.2271,5.938,26.3734,13.1438,40.6669,16.1793,16.0054,3.3991,31.9553,1.3723,46.4509-6.3021,13.7431-7.276,23.318-19.5062,35.4575-28.8551,11.8303-9.1108,25.3235-16.2653,39.7077-20.3182,6.4653-1.8217,13.94-4.2685,20.6858-3.959,3.437,.1577,6.5381,1.63,10.0364,1.6194,5.5012-.0166,9.9416-3.174,13.2862-7.1933,1.6851-2.025,2.9579-4.0097,4.2835-6.2443-.5603,.9446-2.7128,4.1879,1.3454-2.2499,1.2662-2.0087,2.1285-4.3062,2.7345-6.6003,1.6713-6.3274,1.0319-13.0085,.0923-19.374-1.8581-12.5873-6.8093-25.0476-15.6156-34.3958-12.6535-13.4321-32.8602,6.8296-20.2334,20.2334Z"/></g><path d="M635.5213,1559.3611c-32.7993-50.0096-31.6252-112.3562-30.3673-169.8683,.4029-18.4205-28.2115-18.4162-28.6143,0-1.3672,62.5079-1.3103,130.0547,34.274,184.3105,10.0587,15.3366,34.8463,1.0164,24.7077-14.4422h0Z"/><path d="M590.422,1341.1781c18.412,0,18.4425-28.6143,0-28.6143-18.412,0-18.4425,28.6143,0,28.6143h0Z"/><path d="M677.6582,837.9559c11.5417-43.6787,55.4403-74.1794,100.2728-70.9188,7.7158,.5612,14.3072-6.9774,14.3072-14.3072,0-8.2096-6.5691-13.7444-14.3072-14.3072-57.217-4.1614-113.2694,36.6903-127.865,91.9263-4.7089,17.8204,22.8845,25.4228,27.5922,7.6068h0Z"/><path d="M845.3296,766.7202c18.412,0,18.4425-28.6143,0-28.6143-18.412,0-18.4425,28.6143,0,28.6143h0Z"/><path d="M1173.8399,1559.9509c1.9699,9.1018,5.7447,18.4824,10.0945,26.7164,2.7996,5.2994,5.6098,10.5869,8.709,15.7204,2.3021,3.813,4.7259,7.5524,7.2843,11.1986,2.3774,3.3884,5.0726,6.607,7.0835,10.2365,3.6304,6.5524,13.1835,9.2534,19.5749,5.1327,6.6357-4.2781,9.0164-12.5653,5.1327-19.5749-1.922-3.4691-4.4817-6.5496-6.7637-9.7807-2.5694-3.6381-5.0041-7.3711-7.3163-11.1777-3.1068-5.1147-5.9256-10.3835-8.7195-15.6722l-1.415-2.6786c-.1718-.3252-.3255-.6743-.5212-.9867-.9561-1.526,1.3615,3.4148,1.2314,3.0119-.4433-1.3732-1.0824-2.709-1.6018-4.0555-1.9729-5.1157-4.0181-10.3256-5.1807-15.6971-1.5852-7.3245-10.5307-12.2803-17.5995-9.9927-7.7133,2.4961-11.6911,9.7521-9.9927,17.5995h0Z"/><g><path class="d" d="M1146.163,1243.2847c-6.9418,9.7397-.4897,21.2958,.7785,33.1888,5.9495,55.7933,21.4445,110.5563,45.6096,161.1955,7.3642,15.4319,16.157,31.1774,30.6692,40.2203,14.0148,8.7329,31.3941,9.943,47.8935,9.2737,3.3149-.1345,6.9751-.4896,9.2406-2.9133,4.8485-5.187-.8961-13.1789-6.0173-18.0968-26.4748-25.4236-43.474-59.2327-55.4714-93.9219-11.9974-34.6892-19.4586-70.766-29.9051-105.9533-1.2973-4.3697-2.7941-8.968-6.2478-11.9428-9.4217-8.1148-28.9358-1.0274-33.3162-12.6649l-3.2336,1.6147Z"/><path class="d" d="M1133.8092,1236.0636c-6.5037,10.4539-5.4162,21.7145-2.8045,33.2075,2.4998,11.0007,3.3418,22.2738,5.0529,33.4264,3.4926,22.7642,8.5657,45.2827,15.17,67.346,6.8395,22.8491,15.3704,45.174,25.2552,66.8766,8.7255,19.1573,18.6101,38.2368,36.005,50.9267,17.2672,12.5966,41.8529,15.7077,62.6582,13.2378,13.642-1.6195,24.1181-12.9095,20.6308-27.1269-2.6802-10.927-11.9317-18.0314-19.1364-25.9582-28.6474-31.5189-43.1446-73.0707-54.3904-113.377-3.6414-13.051-6.9874-26.1815-10.428-39.2862-3.2728-12.4658-6.0228-25.4857-10.6244-37.5404-4.2183-11.0506-12.1448-18.9151-23.9937-21.1677-4.8135-.9151-9.7379-.9655-14.5511-1.7826,2.4747,.4201-2.8134-.2401-1.3704-.3034,1.7273-.0757-1.9523-.3988-.1626-.0023,.7908,.1752,1.9222,2.7622,.6306-.091-3.3299-7.3554-13.2579-8.2872-19.5749-5.1327l-3.2336,1.6147c-6.9114,3.4513-8.8501,13.2194-5.1327,19.5749,4.1164,7.0378,12.6375,8.597,19.5749,5.1327l3.2336-1.6147-19.5749-5.1327c3.1775,7.0188,10.1722,11.5798,17.493,13.3363,7.7269,1.8539,13.019,1.9113,19.4003,3.1142l-.7864-.2711c1.7271,1.1706,1.6375,.9672-.2687-.6103,1.4577,2.8605,.5504,.6985,1.7101,3.7396,1.7723,4.6471,2.8564,9.6932,4.19,14.4822,3.049,10.9491,5.891,21.9541,8.7617,32.9508,10.1389,38.8396,20.9478,78.0424,40.7233,113.2759,9.3552,16.6678,20.8324,32.2579,34.3451,45.794,1.2341,1.2362,2.5957,2.3928,3.7049,3.7495,.2249,.2751,2.264,3.1203,1.9836,2.9813l-.4218-1.9343c6.7642-5.2144,7.8428-7.4289,3.2358-6.6433-1.9621-.4158-4.7655,.1501-6.7881,.1546-9.193,.0204-18.635-.6233-27.2749-4.0625-15.7717-6.2783-24.1866-22.1115-31.2176-36.5699-8.5637-17.6102-15.8514-35.8142-22.0768-54.3759-7.4561-22.2314-13.3432-44.9892-17.5974-68.0485-2.0509-11.1166-3.5422-22.2655-4.9104-33.48-.704-5.7703-1.9336-11.2941-3.145-16.9628-.7389-3.4574-1.4751-5.9696,.4132-9.0048,9.7553-15.6803-14.9895-30.0628-24.7077-14.4422Z"/></g><path class="e" d="M1128.1751,1238.0161c-3.0009,48.661,8.0545,96.8797,24.4359,142.4221,8.1839,22.7521,17.559,45.1171,27.4815,67.1623,9.0902,20.196,20.1134,40.0757,37.8421,53.9507,16.4951,12.9095,37.7483,19.4794,58.3954,13.6174,19.9321-5.6589,39.2828-25.0848,33.8844-47.3794-4.9691-20.5217-25.7205-34.4003-37.6391-50.8248-12.0637-16.6246-21.8134-35.1539-29.2253-54.2927-8.2309-21.2537-14.2092-43.6733-15.3306-66.5157-1.1427-23.2765,4.042-45.8295,8.2086-68.5736,1.1525-6.291-1.7262-12.782-8.2798-14.5827-5.7578-1.5821-13.423,1.9494-14.5827,8.2798-3.5378,19.3115-7.9065,38.6651-9.0028,58.3196-1.0852,19.4556,1.4923,39.2927,6.1684,58.1691,9.0841,36.6701,25.9878,73.1203,50.1743,102.2826,6.5055,7.8439,13.9888,14.8353,20.3098,22.8397,5.3818,6.8151,8.8608,13.3092,2.7158,20.8858-10.0337,12.3712-29.1785,11.9485-42.1457,5.1029-17.3929-9.1819-28.0336-26.2215-36.4207-43.3912-9.6127-19.6785-17.9574-40.1363-25.7196-60.6063-17.8168-46.9855-30.6821-96.2425-27.5602-146.8655,.9398-15.2385-22.7732-15.1828-23.7095,0h0Z"/></g><g><ellipse cx="817.4503" cy="1020.0247" rx="45.145" ry="94.4159"/><path d="M817.4514,1117.2974c-26.9226,0-48.0049-42.7237-48.0049-97.2715s21.0823-97.2768,48.0049-97.2768,48.0049,42.729,48.0049,97.2768-21.0823,97.2715-48.0049,97.2715Zm0-188.8306c-22.919,0-42.2871,41.9304-42.2871,91.5591s19.3681,91.5537,42.2871,91.5537,42.2871-41.9304,42.2871-91.5537-19.3681-91.5591-42.2871-91.5591Z"/></g><g><ellipse cx="670.1258" cy="1020.0247" rx="45.145" ry="94.4159"/><path d="M670.1253,1117.2974c-26.9226,0-48.0049-42.7237-48.0049-97.2715s21.0823-97.2768,48.0049-97.2768,48.0049,42.729,48.0049,97.2768-21.0823,97.2715-48.0049,97.2715Zm0-188.8306c-22.919,0-42.2871,41.9304-42.2871,91.5591s19.3681,91.5537,42.2871,91.5537,42.2871-41.9304,42.2871-91.5537-19.3681-91.5591-42.2871-91.5591Z"/></g><g><g><path d="M566.6855,867.4121c6.8706-40.4084,13.8164-80.8293,22.0794-120.9689,8.8685-43.0814,31.8019-77.4894,67.3913-103.7116,35.1174-25.8744,73.245-45.1896,114.4335-59.7994,32.781-11.6277,66.0058-17.3952,100.3937-18.6076,16.1689-.5702,32.3406-1.0687,48.5058-1.7292,2.3404-.0956,4.6375-.7169,6.6832-1.8578,4.5086-2.5143,8.7014-5.6544,13.3494-7.8474,30.2113-14.2543,65.5148-3.9863,82.7859,24.3097,2.2538,3.6926,4.7617,5.5398,8.5812,6.8221,24.4056,8.1933,46.4378,20.5489,65.3187,38.179,21.2772,19.8676,41.8133,40.5797,63.7886,59.6369,30.5558,26.4985,52.7815,58.6448,69.1546,95.2155,9.5393,21.3068,10.8239,44.0839,10.7012,66.8765-.1058,19.6576-1.2176,39.325-2.392,58.9577-1.3935,23.2966-3.1282,46.5794-5.2642,69.8177-.296,3.2201-3.3007,8.2007-5.8224,8.7361-3.7883,.8043-8.5353-3.2708-12.3546-5.0744-3.3466-1.5803-5.682-2.9593-8.973-4.7556-17.9645-9.8056-36.1899-19.1346-54.1216-28.9984-14.8973-8.1946-29.5382-16.8575-44.2354-25.4114-3.9021-2.2709-6.6496-2.4497-10.6199,.9785-48.508,41.8847-105.2794,59.0667-168.6206,53.4698-19.8347-1.7527-39.1568-8.6843-58.9574-11.5769-37.8933-5.5357-75.8827-10.6616-113.9799-14.4848-36.2783-3.6406-71.2785,2.7271-105.2216,16.5336-24.2466,9.8623-49.2054,18.0192-74.0201,26.4246-14.7491,4.996-29.8093,9.22-45.6757,8.508-15.202-.6821-25.123-12.6195-20.9645-27.1867,2.5804-9.0387,6.9115-18.3002,12.8265-25.5212,14.0273-17.1245,29.4034-33.1447,44.2816-49.6027,.4689-.5187,.731-1.1903,.7226-1.8895-.0975-8.1224-1.2095-16.9989,.2261-25.4423Zm534.7298,11.2189c7.8692-43.9994,7.215-88.4732,1.9008-132.3442-5.4155-44.7077-18.9792-87.357-54.0793-119.5152-1.8822-1.7245-3.62-3.598-5.2198-5.5873-21.4872-26.7201-50.6625-39.0388-83.5197-44.0745-19.8205-3.0377-39.7211-4.3739-59.875-2.5332-20.7962,1.8993-41.7698,1.8925-62.5516,3.9009-13.1709,1.273-26.4944,3.5221-39.1251,7.3779-49.0349,14.9693-95.6133,34.9227-136.7968,66.5439-32.1302,24.6699-53.7593,55.7793-61.8635,95.206-8.7389,42.5148-15.5926,85.4179-23.149,128.1728-.6698,3.7892-.4568,7.7344-.6769,12.0612,1.2068-.2005,2.0269-.1344,2.6279-.4655,36.4464-20.0837,76.2245-30.669,116.183-40.7087,35.8066-8.9966,72.3356-11.2988,109.0959-12.4549,33.9095-1.0663,66.7619,4.5254,99.9019,10.7725,49.798,9.387,99.28,19.6347,147.2924,36.0065,13.9433,4.7546,27.5121,10.6075,42.5039,16.5628,1.5795,.6274,3.3558-.3199,3.727-1.9784,1.3087-5.8472,2.6264-11.3663,3.6237-16.9426Zm-52.73,13.4673c-50.1262-17.2062-102.2023-26.2194-153.8463-37.4236-58.1181-12.609-115.7805-11.4066-173.4178-1.5824-47.284,8.0594-93.5521,21.0989-136.0579,44.3236-9.3181,5.0914-17.5043,12.7286-25.1643,20.2585-9.4801,9.3191-18.3179,19.3932-26.5647,29.8271-5.2575,6.6521-9.6616,14.2243-13.1429,21.9706-4.1369,9.2043,.6273,16.8424,10.5943,16.0006,12.5443-1.0596,25.291-3.1287,37.2558-6.9414,25.9251-8.2614,51.772-17.0089,76.9851-27.2042,36.3178-14.6859,73.7238-20.8947,112.5175-16.9866,35.6473,3.591,71.2173,8.134,106.6908,13.1759,14.1298,2.0083,27.7759,7.2448,41.8705,9.7026,58.719,10.2389,113.7776,1.7234,163.2642-33.4499,6.179-4.3918,12.2068-8.9965,18.2765-13.5403,.4553-.3409,.6814-.9881,1.4306-2.1255-13.6891-5.421-26.9881-11.301-40.6912-16.0049Zm19.6107-261.577c22.7896,24.3338,32.9997,54.4634,41.2257,85.9771,5.4686,20.9502,5.783,42.0964,7.456,63.3,2.7912,35.3745,.5002,70.4488-5.0943,105.3728-.8968,5.5979-2.5519,11.0744-4.1018,17.14-.3059,1.1972,.2224,2.4545,1.2937,3.0701,17.6746,10.1563,35.8764,20.8604,54.3422,31.0883,17.8692,9.8972,35.9908,19.3391,54.5733,29.2373,1.6552,.8817,3.6977-.0977,4.0217-1.9449,.9621-5.4869,2.1126-11.0966,2.366-16.7466,1.5158-33.7815,2.1157-67.6117,4.0939-101.3629,2.2675-38.6893-10.4727-72.4187-31.153-103.9175-12.2583-18.671-27.1824-35.4439-43.8466-50.3159-19.4765-17.3818-37.8789-35.9553-57.0358-53.7008-15.2202-14.0988-31.1286-27.3628-50.6688-35.3411-1.3234-.5404-2.6228-1.1441-3.9656-1.629-.3134-.1132-.7588,.139-1.2408,.2443,9.2748,9.8732,18.5181,19.6884,27.7343,29.5288Zm-91.1998-62.1277l4.4689,1.1235c3.4473,.8667,4.9291-4.2753,1.526-5.3021-1.5957-.4815-3.2195-.8906-4.8422-1.2198-3.4869-.7073-4.6034,4.531-1.1528,5.3984Z"/><path d="M533.0849,1006.1999c-1.2937,0-2.5927-.0266-3.9024-.0852-10.4879-.4738-19.6768-5.1535-25.2136-12.8411-5.2866-7.3469-6.7293-16.5411-4.0621-25.8951,3.1198-10.9245,8.2839-21.1462,14.534-28.7806,10.3122-12.5908,21.4443-24.7025,32.2091-36.4149,3.5723-3.8811,7.1392-7.7675,10.6849-11.6698-.0479-1.3842-.1118-2.795-.1757-4.2218-.2875-6.2608-.6122-13.3575,.5856-20.3956v-.0053c7.3469-43.2081,14.0868-82.1572,22.1418-121.2713,9.1623-44.5497,33.013-81.2841,70.892-109.1862,34.5463-25.4585,72.75-45.4282,116.778-61.0482,32.619-11.574,66.3454-17.8295,103.1064-19.1232l15.109-.5217c11.1161-.3727,22.2323-.7507,33.3431-1.2032,.953-.0373,1.874-.2875,2.6513-.724,1.6344-.9104,3.2369-1.9272,4.8394-2.9441,2.8269-1.7835,5.7497-3.6255,9.0505-5.1801,34.2641-16.1738,74.8582-4.2271,94.3913,27.7903,1.0488,1.7089,1.7835,2.2892,3.732,2.9441,26.5499,8.9174,49.634,22.4239,68.6187,40.1522,7.2564,6.7719,14.4276,13.6503,21.5987,20.5233,13.5704,13.0061,27.5987,26.4541,41.9411,38.8852,30.1967,26.1932,53.5842,58.365,71.4936,98.3629,10.3069,23.0362,11.6166,47.563,11.4888,70.6311-.1012,19.5331-1.1553,38.4806-2.4117,59.4511-1.4215,23.8667-3.1996,47.4512-5.2812,70.1094-.5537,6.0053-5.3771,15.1676-12.9795,16.7754-6.1863,1.3363-11.542-1.8953-15.4497-4.2431-.921-.5537-1.8101-1.1074-2.6513-1.5066-2.7418-1.2937-4.85-2.4543-7.2564-3.7906l-2.1828-1.1979c-8.417-4.5945-16.8872-9.0824-25.3574-13.5651-9.6255-5.1002-19.2509-10.2004-28.7965-15.455-12.2341-6.724-24.447-13.8579-36.2605-20.7522l-8.1667-4.7648c-.0266-.016-.0479-.0266-.0745-.0426-.0213,.016-.0373,.0319-.0586,.0479-49.5914,42.8248-108.6006,61.5327-175.3453,55.6392-11.7763-1.0435-23.2544-3.7746-34.3546-6.4205-8.6459-2.055-16.8126-4.0035-25.1125-5.212-30.9314-4.5199-71.7917-10.2484-113.573-14.4382-33.3484-3.354-66.3508,1.858-100.9024,15.9129-21.274,8.6512-43.3093,16.0779-64.6205,23.2651l-9.9023,3.3434c-14.0123,4.7435-29.1106,9.0665-45.0981,9.0665Zm-4.9405-29.8666c.1278,0,.8784,.2076,2.1774,.1065,13.4746-1.1393,25.0113-3.2795,35.265-6.5483,21.1782-6.7506,49.0004-15.9182,76.3383-26.9705,38.587-15.6041,77.8981-21.5295,116.8312-17.6059,32.4913,3.2795,67.5114,7.6024,107.0567,13.2244,8.1348,1.1553,15.9768,3.2688,23.5632,5.3185,6.4099,1.7249,12.4631,3.3593,18.5908,4.4294,60.2976,10.5092,111.4542,.0639,156.4458-31.9057,2.5554-1.8154,5.0842-3.6681,7.5971-5.5421-8.9706-3.6788-17.4834-7.1499-26.2677-10.1632h0c-39.0715-13.4107-80.3258-21.9821-120.2172-30.2659-10.8712-2.2573-21.7478-4.5199-32.6084-6.8731-52.9401-11.4888-108.5314-11.9839-169.9736-1.5066-52.7271,8.9919-96.3079,23.1693-133.2286,43.3465-8.4489,4.6104-16.0726,11.7976-23.1586,18.7665-8.6086,8.4595-17.2918,18.2075-25.8099,28.9829-4.5678,5.787-8.6033,12.5376-11.9839,20.0602-.8465,1.874-.7187,2.9654-.6389,3.1517,.0053-.0053,.0106-.0053,.0213-.0053Zm684.9414-14.1667c0,.0106,0,.016-.0053,.0266l.0053-.0266Zm9.141-4.4773l.0266,.016c-.0106-.0053-.016-.0106-.0266-.016Zm-104.448-57.7528l10.9192,6.2981c12.7452,7.3735,25.9323,15.0025,39.1141,22.3015,13.0913,7.251,26.0867,14.1347,39.8435,21.4177l6.9103,3.6734c.3727-2.3904,.6495-4.7222,.7507-7.0115,.6069-13.4852,1.0648-26.9705,1.5279-40.461,.6761-19.9909,1.3842-40.6687,2.5767-61.0323,1.9485-33.3218-7.48-64.5939-29.6803-98.4108-11.3344-17.2598-25.565-33.588-42.3031-48.5266-11.5793-10.3335-22.9137-21.2048-33.8701-31.7193-7.5066-7.2085-15.0185-14.4169-22.6475-21.4976,12.676,19.9004,20.4381,42.6651,27.3751,69.2416,4.5465,17.4195,5.6965,34.8763,6.8038,51.7529,.2875,4.3709,.575,8.747,.921,13.1232,2.6726,33.8755,.9796,69.0499-5.1801,107.5199-.7347,4.5678-1.8633,8.8322-3.0612,13.3308Zm-35.2703,3.0346c-.0213,.0106-.0373,.0266-.0532,.0373l.0532-.0373Zm-269.6674-77.962c31.6235,0,62.1183,5.2173,93.1083,11.0629,45.4175,8.5607,98.0967,19.1338,148.5399,36.3351,10.3708,3.535,20.3689,7.5918,30.958,11.8934,1.693,.6868,3.4019,1.3789,5.1215,2.0763,.7027-3.1411,1.3629-6.2342,1.9166-9.3433h0c7.0381-39.3377,7.6344-81.7526,1.8261-129.6563-6.2289-51.4228-22.4985-87.6248-51.2045-113.9191-2.1774-2.0018-4.2484-4.2165-6.1543-6.5856-18.0637-22.4665-42.7929-35.43-77.8289-40.7964-21.2793-3.2635-40.1469-4.0568-57.6783-2.4703-10.3016,.9423-20.7203,1.4268-30.793,1.8953-10.4453,.4898-21.2474,.9902-31.7087,2.0018-14.1347,1.3682-26.3476,3.6681-37.3466,7.0274-55.7031,16.999-98.2564,37.6713-133.926,65.0624-31.9908,24.5641-51.1246,53.9516-58.4981,89.8395-6.33,30.7877-11.771,62.3632-17.0256,92.9007-1.7675,10.275-3.535,20.5446-5.3398,30.8089,32.9172-16.1365,67.8148-25.6129,106.2528-35.2703,34.8763-8.763,69.6036-11.4249,111.0176-12.7293,2.9334-.0905,5.8562-.1331,8.763-.1331Zm212.4151-233.4655c1.2884,.8838,2.5554,1.7888,3.8065,2.7151l2.2467-.5004c-1.0967-.3886-2.1987-.7666-3.3061-1.1393-.9636-.3248-1.8793-.6814-2.7471-1.0754Zm-34.3546-16.6263c10.3442,3.3647,19.8046,7.6344,28.4239,12.8198-1.7941-1.5971-3.354-3.5084-4.7542-5.803-5.393-8.8322-12.9209-15.6307-21.5668-20.0974,1.1286,2.4436,1.4215,5.2919,.6442,8.1188-.5324,1.9219-1.4907,3.5989-2.7471,4.9618Zm-13.1179-3.6788c.6176,.1437,1.2351,.2981,1.8474,.4472,2.071-.6814,3.7906-2.401,4.291-4.6158,.559-2.449-.5217-5.0097-2.4862-6.4578-.937,.1331-1.8367,.4738-2.63,.9796l-1.7089,6.8038,1.6983-6.7932c-1.2511,.8092-2.22,2.0443-2.63,3.5297-.6069,2.1881,.1012,4.5199,1.6184,6.1064Zm-41.5737-5.9786c8.2253,.559,16.7541,1.5226,25.6608,2.8855,1.512,.2342,3.0026,.4791,4.4827,.7347-.5058-1.8314-.5696-3.8225-.1171-5.8243,.7081-3.1251,2.5554-5.6645,5.0097-7.2723-9.2581-.6335-18.8516,1.0594-27.8542,5.3078-2.2999,1.0861-4.6317,2.5554-7.102,4.1153-.0266,.016-.0532,.0373-.0799,.0532Z"/></g><g><path class="d" d="M1094.0646,897.5519c1.5795,.6274,3.3558-.3199,3.727-1.9784,1.3087-5.8472,2.6264-11.3663,3.6237-16.9426,7.8692-43.9994,7.215-88.4732,1.9008-132.3442-5.4155-44.7077-18.9792-87.357-54.0793-119.5152-1.8822-1.7245-3.62-3.598-5.2198-5.5873-21.4872-26.7201-50.6625-39.0388-83.5197-44.0745-19.8205-3.0377-39.7211-4.3739-59.875-2.5332-20.7962,1.8993-41.7698,1.8925-62.5516,3.9009-13.1709,1.273-26.4944,3.5221-39.1251,7.3779-49.0349,14.9693-95.6133,34.9227-136.7968,66.5439-32.1302,24.6699-53.7593,55.7793-61.8635,95.206-8.7389,42.5148-15.5926,85.4179-23.149,128.1728-.6698,3.7892-.4568,7.7344-.6769,12.0612,1.2068-.2005,2.0269-.1344,2.6279-.4655,36.4464-20.0837,76.2245-30.669,116.183-40.7087,35.8066-8.9966,72.3356-11.2988,109.0959-12.4549,33.9095-1.0663,66.7619,4.5254,99.9019,10.7725,49.798,9.387,99.28,19.6347,147.2924,36.0065,13.9433,4.7546,27.5121,10.6075,42.5039,16.5628Z"/><path d="M1095.078,906.8149c-1.4747,0-2.9547-.2768-4.3602-.8358h0c-4.126-1.6397-8.1454-3.2688-12.0957-4.8766-10.3389-4.1952-20.1081-8.1614-29.9891-11.5314-49.3092-16.8126-101.2431-27.2313-146.043-35.6749-32.816-6.1863-65.0145-11.6645-97.9423-10.621-40.2428,1.2617-73.868,3.8172-107.1685,12.1862-41.9304,10.5358-79.4474,20.8108-114.0149,39.8541-2.0177,1.1074-3.8544,1.2937-4.9512,1.4055l-.559,.0639-11.1374,1.8633,.5856-11.2759c.0692-1.315,.0905-2.5927,.1118-3.8438,.0586-2.9867,.1171-6.0798,.6868-9.322,2.0603-11.6485,4.0674-23.297,6.0745-34.9456,5.2812-30.6812,10.7381-62.4111,17.1267-93.481,8.1774-39.7796,30.1222-73.6178,65.2274-100.5723,37.4424-28.754,81.8218-50.3687,139.6704-68.0224,12.1649-3.7214,25.549-6.2502,40.8976-7.7355,10.9138-1.0541,21.9448-1.5652,32.6137-2.0656,9.8704-.4578,20.0814-.9317,29.9838-1.8367,19.038-1.7515,39.3324-.8891,62.0757,2.598,39.2419,6.0159,68.4271,21.5082,89.2112,47.3607,1.3416,1.661,2.779,3.2049,4.2857,4.5838,32.0707,29.3822,50.1717,69.1404,56.9489,125.1044,6.0266,49.7192,5.3824,93.8909-1.9751,135.0334-.8305,4.637-1.8687,9.2368-2.9494,14.007l-.7507,3.3167c-.7613,3.3966-2.96,6.2715-6.0372,7.8952-1.7249,.9104-3.6255,1.3682-5.5261,1.3682Zm-282.237-81.8058c31.6235,0,62.1183,5.2173,93.1083,11.0629,45.4175,8.5607,98.0967,19.1338,148.5399,36.3351,10.3708,3.535,20.3689,7.5918,30.958,11.8934,1.693,.6868,3.4019,1.3789,5.1215,2.0763,.7027-3.1411,1.3629-6.2342,1.9166-9.338,7.0381-39.343,7.6344-81.7579,1.8261-129.6616-6.2289-51.4228-22.4985-87.6248-51.2045-113.9191-2.1774-2.0018-4.2484-4.2165-6.1543-6.5856-18.0637-22.4665-42.7929-35.43-77.8289-40.7964-21.2793-3.2635-40.1469-4.0568-57.6783-2.4703-10.3016,.9423-20.7203,1.4268-30.793,1.8953-10.4453,.4898-21.2474,.9902-31.7087,2.0018-14.1347,1.3682-26.3476,3.6681-37.3466,7.0274-55.7031,16.999-98.2564,37.6713-133.926,65.0624-31.9908,24.5641-51.1246,53.9516-58.4981,89.8395-6.33,30.7877-11.771,62.3632-17.0256,92.9007-1.7675,10.275-3.535,20.5446-5.3398,30.8089,32.9172-16.1365,67.8148-25.6129,106.2528-35.2703,34.8763-8.763,69.6036-11.4249,111.0176-12.7293,2.9334-.0905,5.8562-.1331,8.763-.1331Z"/></g><g><path class="d" d="M1089.3764,908.1031c-13.6891-5.421-26.9881-11.301-40.6912-16.0049-50.1262-17.2062-102.2023-26.2194-153.8463-37.4236-58.1181-12.609-115.7805-11.4066-173.4178-1.5824-47.284,8.0594-93.5521,21.0989-136.0579,44.3236-9.3181,5.0914-17.5043,12.7286-25.1643,20.2585-9.4801,9.3191-18.3179,19.3932-26.5647,29.8271-5.2575,6.6521-9.6616,14.2243-13.1429,21.9706-4.1369,9.2043,.6273,16.8424,10.5943,16.0006,12.5443-1.0596,25.291-3.1287,37.2558-6.9414,25.9251-8.2614,51.772-17.0089,76.9851-27.2042,36.3178-14.6859,73.7238-20.8947,112.5175-16.9866,35.6473,3.591,71.2173,8.134,106.6908,13.1759,14.1298,2.0083,27.7759,7.2448,41.8705,9.7026,58.719,10.2389,113.7776,1.7234,163.2642-33.4499,6.179-4.3918,12.2068-8.9965,18.2765-13.5403,.4553-.3409,.6814-.9881,1.4306-2.1255Z"/><path d="M529.6244,994.6047c-6.889,0-12.7559-2.7897-16.3335-7.8367-4.0887-5.771-4.4827-13.432-1.0754-21.0131,3.9929-8.8801,8.8056-16.9138,14.2998-23.8773,8.9919-11.3664,18.1808-21.6839,27.3272-30.6705,7.645-7.5172,16.6795-16.0194,27.1781-21.7478,38.7095-21.1569,84.1376-35.9731,138.8772-45.3057,63.7687-10.8659,121.6173-10.3176,176.8626,1.6557,10.8074,2.3478,21.636,4.5945,32.454,6.8411,40.4451,8.401,82.2637,17.0895,122.4159,30.8728,9.6255,3.3008,19.1232,7.1978,28.3068,10.9671,4.2378,1.7356,8.4862,3.4818,12.7772,5.1801l10.3708,4.11-6.5217,9.9502c-.5324,.9157-1.4268,2.449-3.2049,3.7746l-3.8864,2.9175c-4.8181,3.6255-9.6361,7.251-14.55,10.7435-48.4681,34.4398-105.6991,46.2267-170.0747,34.9881-6.9369-1.2085-13.6769-3.0293-20.1932-4.7861-7.3841-1.9911-14.3583-3.8757-21.3964-4.8766-39.2951-5.5847-74.0756-9.8757-106.322-13.1285-35.9677-3.6202-72.388,1.89-108.2066,16.3707-27.9075,11.2865-56.1503,20.5925-77.6373,27.439-11.5633,3.6841-24.3991,6.0851-39.2472,7.3362-.7507,.0639-1.4907,.0958-2.22,.0958Zm-1.48-18.2713c.1278,0,.8784,.2076,2.1774,.1065,13.4746-1.1393,25.0113-3.2795,35.265-6.5483,21.1782-6.7506,49.0004-15.9182,76.3383-26.9705,38.587-15.6041,77.8981-21.5295,116.8312-17.6059,32.4913,3.2795,67.5114,7.6024,107.0567,13.2244,8.1348,1.1553,15.9768,3.2688,23.5632,5.3185,6.4099,1.7249,12.4631,3.3593,18.5908,4.4294,60.2976,10.5092,111.4542,.0639,156.4458-31.9057,2.5554-1.8154,5.0842-3.6681,7.5971-5.5368-8.9706-3.6841-17.4834-7.1552-26.2677-10.1685-39.0715-13.4107-80.3258-21.9821-120.2172-30.2659-10.8712-2.2573-21.7478-4.5199-32.6084-6.8731-52.9401-11.4888-108.5314-11.9839-169.9736-1.5066-52.7271,8.9919-96.3079,23.1693-133.2286,43.3465-8.4489,4.6104-16.0726,11.7976-23.1586,18.7665-8.6086,8.4595-17.2918,18.2075-25.8099,28.9829-4.5678,5.787-8.6033,12.5376-11.9839,20.0602-.8465,1.874-.7187,2.9654-.6389,3.1517,.0053-.0053,.0106-.0053,.0213-.0053Zm554.364-73.3622c-.0213,.0106-.0373,.0266-.0532,.0373l.0532-.0373Z"/></g><g><path class="d" d="M1040.5617,600.9924c9.2748,9.8732,18.5181,19.6884,27.7343,29.5288,22.7896,24.3338,32.9997,54.4634,41.2257,85.9771,5.4686,20.9502,5.783,42.0964,7.456,63.3,2.7912,35.3745,.5002,70.4488-5.0943,105.3728-.8968,5.5979-2.5519,11.0744-4.1018,17.14-.3059,1.1972,.2224,2.4545,1.2937,3.0701,17.6746,10.1563,35.8764,20.8604,54.3422,31.0883,17.8692,9.8972,35.9908,19.3391,54.5733,29.2373,1.6552,.8817,3.6977-.0977,4.0217-1.9449,.9621-5.4869,2.1126-11.0966,2.366-16.7466,1.5158-33.7815,2.1157-67.6117,4.0939-101.3629,2.2675-38.6893-10.4727-72.4187-31.153-103.9175-12.2583-18.671-27.1824-35.4439-43.8466-50.3159-19.4765-17.3818-37.8789-35.9553-57.0358-53.7008-15.2202-14.0988-31.1286-27.3628-50.6688-35.3411-1.3234-.5404-2.6228-1.1441-3.9656-1.629-.3134-.1132-.7588,.139-1.2408,.2443Z"/><path d="M1219.2987,975.0982c-1.9219,0-3.8438-.4632-5.5794-1.3895l-14.5553-7.7249c-13.8313-7.3256-26.9013-14.2465-40.1363-21.5828-13.3308-7.3788-26.5925-15.0504-39.4122-22.4665l-15.0558-8.6885c-4.5838-2.6406-6.8624-8.0496-5.5687-13.1605l1.1925-4.5572c1.1074-4.1419,2.1455-8.0496,2.7471-11.7923,5.9254-37.0325,7.5651-70.7962,5.0097-103.2235-.3514-4.456-.6442-8.9068-.937-13.3575-1.102-16.7754-2.1455-32.6137-6.2555-48.3669-8.7683-33.5773-18.7665-60.3881-39.0715-82.072l-38.6296-41.1212,15.274-3.3913c1.0594-.3354,3.5883-1.0435,6.5217,0,1.0861,.394,2.1136,.8252,3.1411,1.2671l1.2245,.5164c21.0025,8.5767,38.0706,22.8871,53.3873,37.0751,7.9325,7.3469,15.7319,14.8322,23.5313,22.3175,10.8393,10.4027,22.0513,21.1569,33.3857,31.2721,17.92,15.9928,33.1887,33.5241,45.3909,52.1042,24.1116,36.7344,34.7858,72.5317,32.619,109.4311-1.1766,20.1347-1.874,40.7006-2.5554,60.5851-.4578,13.5544-.921,27.1036-1.5279,40.6474-.2396,5.3398-1.1446,10.3974-2.0231,15.29l-.4685,2.614c-.6548,3.7267-3.0718,6.9316-6.4631,8.582-1.6344,.7986-3.4126,1.1925-5.1854,1.1925Zm-6.2129-12.9316c0,.0106,0,.016-.0053,.0266l.0053-.0266Zm9.141-4.4773l.0266,.016c-.0106-.0053-.016-.0106-.0266-.016Zm-104.448-57.7528l10.9192,6.2981c12.7452,7.3735,25.9323,15.0025,39.1141,22.3015,13.0913,7.251,26.0867,14.1347,39.8435,21.4177l6.9103,3.6734c.3727-2.3904,.6495-4.7222,.7507-7.0115,.6069-13.4852,1.0648-26.9705,1.5279-40.461,.6761-19.9909,1.3842-40.6687,2.5767-61.0323,1.9485-33.3218-7.48-64.5886-29.6803-98.4108-11.3344-17.2598-25.565-33.588-42.3031-48.5266-11.5793-10.3335-22.9137-21.2048-33.8701-31.7193-7.5066-7.2085-15.0185-14.4169-22.6475-21.4976,12.676,19.9004,20.4381,42.6651,27.3751,69.2416,4.5465,17.4195,5.6965,34.8763,6.8038,51.7529,.2875,4.3709,.575,8.747,.921,13.1232,2.6726,33.8755,.9796,69.0499-5.1801,107.5199-.7347,4.5678-1.8633,8.8322-3.0612,13.3308Z"/></g><g><path class="d" d="M977.0955,568.3939c1.4927,.3754,2.9823,.75,4.4694,1.124,3.4473,.867,4.9297-4.2747,1.5266-5.3019-1.596-.4817-3.22-.8911-4.843-1.2204-3.4869-.7075-4.6036,4.5306-1.153,5.3983Z"/><path d="M982.2875,578.6812c-.9636,0-1.9485-.1171-2.9387-.3673l-4.4667-1.1233c-6.2874-1.5812-10.0886-7.7941-8.6459-14.1347,1.4321-6.2981,7.5226-10.2271,13.8153-8.944,1.9006,.3833,3.8012,.8571,5.6699,1.4268,6.165,1.858,9.6468,8.1987,7.9272,14.4276-1.4641,5.2759-6.1543,8.7151-11.361,8.7151Zm-3.4924-17.0841c-1.2458,.8145-2.22,2.0443-2.63,3.5297-.7027,2.5395,.3567,5.2759,2.4064,6.8092,2.5341-.3833,4.7648-2.2892,5.3504-4.866,.559-2.4543-.5217-5.015-2.4915-6.4631-.937,.1331-1.8314,.4738-2.6193,.9849l-1.7143,6.8038,1.6983-6.7985Zm.5164-1.9964l.016,.0053c-.0053,0-.0106-.0053-.016-.0053h0Z"/></g></g></g></g></g></g></svg>